<?xml version="1.0" standalone="no"?>
<!DOCTYPE svg PUBLIC "-//W3C//DTD SVG 20010904//EN"
 "http://www.w3.org/TR/2001/REC-SVG-20010904/DTD/svg10.dtd">
<svg version="1.0" xmlns="http://www.w3.org/2000/svg"
 width="160.000000pt" height="160.000000pt" viewBox="0 0 160.000000 160.000000"
 preserveAspectRatio="xMidYMid meet">
<metadata>
Created by potrace 1.11, written by Peter Selinger 2001-2013
</metadata>
<g transform="translate(0.000000,160.000000) scale(0.100000,-0.100000)"
fill="#000000" stroke="none">
<path d="M747 1420 c-14 -11 -31 -36 -37 -55 -15 -46 11 -104 56 -124 29 -12
31 -17 29 -60 -3 -72 -7 -75 -56 -40 -24 16 -27 24 -19 39 15 28 -28 67 -45
40 -9 -15 -508 -13 -523 2 -13 13 -42 -6 -42 -28 0 -21 35 -35 49 -21 9 9 81
12 258 12 l246 1 32 -33 c17 -18 49 -44 70 -59 l38 -26 41 23 c23 12 57 39 76
59 l36 36 241 -1 c133 0 245 -3 249 -7 14 -14 52 -8 58 9 10 26 -17 48 -42 34
-31 -16 -496 -15 -523 2 -17 10 -22 9 -35 -7 -8 -11 -12 -28 -9 -37 7 -21 -32
-61 -55 -57 -11 2 -15 17 -17 54 -1 46 1 51 27 62 53 24 77 85 55 139 -25 59
-109 81 -158 43z m89 -10 c36 -14 53 -38 54 -76 0 -32 -31 -74 -55 -74 -18 0
-20 33 -3 59 9 15 9 23 -1 35 -17 20 -26 20 -45 0 -14 -14 -14 -18 -1 -37 30
-43 11 -75 -27 -44 -42 33 -39 95 5 129 26 21 36 22 73 8z"/>
<path d="M225 1114 c-19 -19 -19 -28 0 -44 9 -7 22 -9 32 -4 28 13 345 14 370
2 31 -15 57 6 42 33 -10 19 -39 25 -53 12 -9 -10 -346 -11 -346 -2 0 15 -31
17 -45 3z"/>
<path d="M1359 1117 c-11 -10 -55 -13 -186 -14 -95 0 -173 4 -173 9 0 14 -48
9 -53 -6 -9 -23 17 -51 39 -41 25 12 363 14 370 3 9 -14 33 -9 43 11 15 26
-20 59 -40 38z"/>
<path d="M332 1008 c-17 -17 -15 -36 6 -47 13 -7 23 -6 31 2 17 17 219 18 253
1 23 -12 29 -12 42 1 28 28 -11 69 -41 44 -17 -15 -234 -14 -262 0 -12 7 -22
6 -29 -1z"/>
<path d="M762 982 c-48 -44 -62 -70 -62 -112 0 -40 20 -77 64 -118 37 -34 61
-37 72 -7 9 23 -14 47 -36 35 -13 -7 -24 -4 -44 15 -14 13 -27 28 -27 32 -7
42 -6 62 2 84 12 29 51 55 68 44 14 -8 41 12 41 31 0 7 -8 18 -19 23 -15 8
-26 3 -59 -27z"/>
<path d="M953 1008 c-23 -37 2 -67 39 -47 33 19 226 20 254 2 19 -12 24 -12
38 2 21 21 20 32 -2 44 -11 6 -24 6 -35 -1 -24 -13 -230 -12 -256 1 -25 14
-28 14 -38 -1z"/>
<path d="M781 881 c-15 -27 9 -45 48 -36 25 5 35 2 56 -21 14 -15 26 -35 26
-45 1 -11 2 -25 3 -31 6 -41 -67 -116 -84 -88 -7 11 -15 10 -46 -6 -134 -70
-137 -191 -7 -266 26 -15 32 -16 49 -3 15 11 17 17 8 32 -12 20 -35 24 -46 9
-11 -17 -56 14 -73 51 -21 44 -12 85 27 118 33 28 37 29 57 16 16 -11 94 39
118 75 23 36 25 96 3 129 -19 28 -96 85 -117 85 -7 0 -17 -9 -22 -19z"/>
<path d="M784 535 c-12 -31 4 -48 40 -41 27 5 38 2 59 -20 26 -25 30 -34 30
-69 0 -35 -4 -45 -28 -73 -25 -30 -38 -34 -62 -19 -23 14 -45 -4 -39 -32 16
-68 16 -78 2 -91 -20 -16 -4 -50 23 -50 24 0 34 26 21 50 -21 39 -12 69 30 95
52 33 73 66 74 118 0 51 -20 81 -79 120 -48 31 -63 33 -71 12z"/>
</g>
</svg>
