<svg width="109" height="109" viewBox="0 0 109 109" fill="none" xmlns="http://www.w3.org/2000/svg">
<circle cx="54.5" cy="54.5" r="54.5" fill="#22294A"/>
<path d="M84.3002 68.8984L75.126 68.8987C72.7859 72.6102 69.6666 75.7517 66 78.1016H84.3002V85L98 73.5011L84.3002 62V68.8984Z" fill="white"/>
<path d="M49.5811 77.9913C63.6343 77.8956 75 66.5148 75 52.48C75 39.1692 64.7751 28.2505 51.7313 27.0769V20L37.7701 31.6L51.7313 43.1977V36.4745C59.6039 37.6124 65.6925 44.3206 65.6925 52.48C65.6925 61.4338 58.3848 68.72 49.4044 68.72H19V78H49.5917C49.587 77.9972 49.5856 77.9941 49.5811 77.9913Z" fill="white"/>
<path d="M38.1829 64C35.1635 61.0274 33.275 56.8945 33.275 52.3153C33.275 46.8839 35.9442 42.0958 40 39.119L32.7134 33C27.3827 37.7116 24 44.6083 24 52.3153C24 56.5382 25.0759 60.4853 26.8661 64H38.1829Z" fill="white"/>
</svg>
