<svg width="109" height="109" viewBox="0 0 109 109" fill="none" xmlns="http://www.w3.org/2000/svg">
<circle cx="54.5" cy="54.5" r="54.5" fill="#22294A"/>
<path d="M54.8745 27.1491C55.6566 27.1491 56.2907 26.515 56.2907 25.7328V19.4162C56.2907 18.6341 55.6566 18 54.8745 18C54.0923 18 53.4583 18.6341 53.4583 19.4162V25.7328C53.4584 26.515 54.0925 27.1491 54.8745 27.1491Z" fill="white"/>
<path d="M89.4925 66.6542L86.9907 64.1593C86.1006 63.2705 84.9145 62.7808 83.6505 62.7808C82.8424 62.7808 82.0665 62.9819 81.379 63.3586L76.6644 58.6497L76.8941 58.4203C78.8067 56.5039 78.806 53.3897 76.8939 51.4798C76.2106 50.7952 75.358 50.3387 74.4286 50.1466C74.5566 49.7049 74.624 49.2423 74.624 48.7688C74.624 47.4532 74.1129 46.2197 73.1879 45.2984C72.5044 44.6139 71.652 44.1574 70.7226 43.9653C70.8506 43.5236 70.9179 43.0611 70.9179 42.5875C70.9179 41.2718 70.4069 40.0384 69.4803 39.1157C68.7806 38.4168 67.9204 37.9744 67.0171 37.7861C67.5003 36.1201 67.0874 34.2457 65.7768 32.9329C64.6858 31.8465 63.2055 31.3797 61.7788 31.531L52.4364 29.7626C51.0116 29.4923 49.2323 29.3136 48.1091 30.3381C48.0382 30.4027 47.966 30.4771 47.8948 30.56C46.1533 29.9252 44.1221 30.3032 42.7275 31.6962C41.8024 32.6203 41.2927 33.8533 41.2927 35.1681C41.2927 35.6417 41.3598 36.1042 41.4876 36.5461C40.5592 36.738 39.7078 37.1939 39.0267 37.8763C38.0997 38.7995 37.5885 40.0311 37.5875 41.3443C37.5871 41.8191 37.6545 42.2832 37.783 42.7261C36.8542 42.9177 36.0021 43.3727 35.319 44.055C34.392 44.9811 33.8815 46.2148 33.8815 47.5289C33.8815 48.5355 34.182 49.4944 34.7389 50.3044C34.0358 50.5428 33.3917 50.9395 32.8524 51.4782C30.9385 53.3897 30.9378 56.504 32.8537 58.4233L33.0825 58.6511L28.3673 63.3576C26.615 62.5326 24.456 62.8417 23.0099 64.2859L20.5065 66.7823C19.6161 67.6716 19.1259 68.8579 19.1257 70.1226C19.1257 71.3873 19.6161 72.5738 20.5065 73.4632L23.6308 76.5837C24.1842 77.1365 25.0809 77.1359 25.6336 76.5826C26.1864 76.0292 26.1858 75.1325 25.6325 74.5798L22.5082 71.4593C22.1535 71.1051 21.9582 70.6303 21.9582 70.1227C21.9582 69.6152 22.1535 69.1406 22.5073 68.7872L25.0109 66.2907C25.6364 65.6659 26.5938 65.5728 27.3208 66.0074C27.372 66.0844 27.4312 66.1575 27.499 66.2254C27.6203 66.3471 27.7588 66.4403 27.9059 66.5085L42.2628 80.8442C42.331 80.9929 42.4246 81.1328 42.5468 81.2551C42.6658 81.3742 42.8015 81.4664 42.9455 81.5341C43.2491 81.8774 43.4169 82.3159 43.4169 82.7836C43.4169 83.2912 43.2215 83.7659 42.8669 84.1201L40.3659 86.6181C39.6269 87.3539 38.4248 87.3538 37.6881 86.6204L34.5638 83.4958C34.0107 82.9428 33.1141 82.9428 32.561 83.4958C32.008 84.0489 32.008 84.9456 32.561 85.4986L35.6876 88.6254C36.6078 89.5419 37.8163 89.9999 39.0254 89.9999C40.2348 89.9999 41.4447 89.5412 42.3661 88.6239L44.8687 86.1243C45.7591 85.2348 46.2495 84.0485 46.2495 82.7836C46.2495 81.8809 45.9985 81.0189 45.5317 80.2755L50.8384 74.9754C50.844 74.9696 50.8496 74.9638 50.8554 74.9581C51.463 74.3299 53.1552 74.4475 54.7916 74.5611C55.9543 74.642 57.2506 74.7318 58.517 74.5858L64.3282 80.3901C63.9518 81.0765 63.7508 81.8514 63.7508 82.6583C63.7508 83.9218 64.2412 85.1074 65.1316 85.9969L67.6343 88.4965C68.5242 89.3854 69.7104 89.875 70.9743 89.875C72.2381 89.875 73.4243 89.3855 74.3143 88.4965L89.4935 73.3357C90.3839 72.4464 90.8743 71.2601 90.8743 69.9953C90.8742 68.7306 90.3838 67.5443 89.4925 66.6542ZM51.9091 32.5456L58.0526 33.7084L54.3754 37.3842C53.8065 37.1108 53.0269 36.6009 52.1716 35.7828C51.0009 34.6628 50.1635 33.3698 50.0873 32.5633L50.0871 32.562C50.0817 32.5041 50.0801 32.4574 50.0808 32.4221C50.266 32.3771 50.7579 32.3272 51.9091 32.5456ZM44.729 33.7003C45.4465 32.9835 46.5611 32.9008 47.3718 33.4498C47.8312 35.3761 49.4744 37.1219 50.2137 37.8293C50.7616 38.3535 52.5195 39.9253 54.2939 40.3573C54.534 40.7014 54.6646 41.1116 54.6646 41.5445C54.6646 42.102 54.4502 42.6233 54.0594 43.0137C53.6697 43.4041 53.1476 43.619 52.589 43.619C52.0303 43.619 51.5082 43.4041 51.1167 43.0119L51.1158 43.011L44.7289 36.6357C44.3395 36.2468 44.1251 35.7255 44.1251 35.1681C44.1252 34.6105 44.3397 34.0892 44.729 33.7003ZM41.0284 39.8803C41.418 39.4901 41.9396 39.2751 42.4973 39.2751C43.0557 39.2751 43.579 39.4905 43.9712 39.8823L49.1142 45.0149C49.924 45.8261 49.924 47.146 49.117 47.9543C48.7252 48.3445 48.2012 48.5594 47.6417 48.5594C47.0821 48.5594 46.5582 48.3445 46.1681 47.956L42.2663 44.055C42.2602 44.049 42.2536 44.0434 42.2474 44.0372L41.0268 42.8171C40.6352 42.4259 40.4196 41.9036 40.42 41.3465C40.4206 40.7911 40.6355 40.2715 41.0284 39.8803ZM37.3206 46.0591C37.7106 45.6697 38.2333 45.4552 38.7927 45.4552C39.3475 45.4552 39.8657 45.6666 40.2539 46.0492L44.1675 49.961C44.5578 50.3497 44.7728 50.8704 44.7728 51.4273C44.7728 51.984 44.5578 52.5048 44.166 52.895C43.7762 53.2843 43.254 53.4987 42.6956 53.4987C42.1363 53.4987 41.6125 53.2837 41.2221 52.895L39.8034 51.4779L39.8024 51.4769L37.3208 48.9983C36.9296 48.6075 36.7141 48.0855 36.7141 47.5286C36.7141 46.9719 36.9296 46.4497 37.3206 46.0591ZM34.8541 53.4821C35.2457 53.0909 35.7691 52.8755 36.3278 52.8755C36.8864 52.8755 37.4097 53.0908 37.8012 53.4817L39.2219 54.9007C39.6123 55.2894 39.8271 55.8102 39.8271 56.367C39.8271 56.9239 39.6121 57.4445 39.2189 57.8363C38.8293 58.2265 38.3071 58.4415 37.7486 58.4415C37.1899 58.4415 36.6677 58.2267 36.2752 57.8335L36.0973 57.6563C36.095 57.6539 36.0931 57.6514 36.0909 57.6491C36.0882 57.6466 36.0854 57.6443 36.0827 57.6418L34.8555 56.4194C34.0456 55.6078 34.0449 54.2903 34.8541 53.4821ZM63.7151 69.5778C63.1623 69.0243 62.2655 69.0238 61.7123 69.5765L60.4523 70.835C59.255 72.0322 57.0856 71.8815 54.9876 71.7359C52.7094 71.5776 50.3535 71.4142 48.829 72.9793L43.6125 78.1895L30.5677 65.1638L35.1841 60.5557C35.9472 61.0234 36.8276 61.2741 37.7488 61.2741C39.065 61.2741 40.2991 60.764 41.2209 59.8405C42.1489 58.9163 42.66 57.6829 42.66 56.3672C42.66 56.3549 42.6592 56.3428 42.6592 56.3306C42.6714 56.3308 42.6837 56.3315 42.6959 56.3315C44.0102 56.3315 45.2433 55.8228 46.1664 54.9009C47.0944 53.9767 47.6055 52.7431 47.6055 51.4276C47.6055 51.4153 47.6047 51.4033 47.6047 51.391C47.6171 51.391 47.6294 51.3919 47.642 51.3919C48.9558 51.3919 50.1897 50.8838 51.1189 49.9583C52.0836 48.9921 52.5607 47.72 52.5516 46.4506C52.5643 46.4507 52.5769 46.4514 52.5896 46.4514C53.9057 46.4513 55.1397 45.9412 56.0629 45.0163C56.988 44.0923 57.4977 42.8593 57.4977 41.5445C57.4977 40.6249 57.2476 39.7459 56.7814 38.9844L60.8277 34.9399C61.1292 34.6396 61.501 34.4512 61.8906 34.3734C61.9328 34.3689 61.9745 34.3622 62.0157 34.354C62.6409 34.2678 63.2974 34.4608 63.7756 34.9369C64.5854 35.7482 64.5854 37.0681 63.7785 37.8764L62.5462 39.1036C62.5422 39.1077 62.5378 39.1114 62.5337 39.1154L61.1144 40.5324C60.5609 41.085 60.5603 41.9818 61.1131 42.5352C61.6661 43.0887 62.5627 43.0891 63.1159 42.5364L64.3531 41.3009L64.354 41.3001L64.541 41.1137C65.3531 40.3091 66.6688 40.3108 67.4801 41.1209C67.8704 41.5096 68.0854 42.0303 68.0854 42.5872C68.0854 43.1439 67.8704 43.6647 67.477 44.0564L66.2376 45.2983L64.818 46.7123C64.2638 47.2642 64.262 48.161 64.8139 48.7151C65.3659 49.2693 66.2625 49.271 66.8167 48.7191L68.2424 47.2993C68.6321 46.9089 69.1542 46.694 69.7128 46.694C70.2715 46.694 70.7937 46.9089 71.1862 47.3021C71.5766 47.6909 71.7915 48.2116 71.7915 48.7685C71.7915 49.3252 71.5766 49.846 71.184 50.2369L68.7132 52.7087C68.1603 53.2619 68.1604 54.1585 68.7135 54.7115C68.9901 54.9879 69.3523 55.126 69.7147 55.126C70.0773 55.126 70.4398 54.9876 70.7163 54.711L71.9272 53.4997C71.9341 53.4931 71.9415 53.4873 71.9484 53.4804C72.3381 53.0901 72.8602 52.8752 73.4188 52.8752C73.9775 52.8752 74.4996 53.0901 74.8907 53.4818C75.6997 54.29 75.699 55.6077 74.8907 56.4174L73.6595 57.6471L73.6581 57.6484L73.6569 57.6498L71.7027 59.6016C71.1494 60.1544 71.1488 61.0511 71.7015 61.6045C71.9781 61.8814 72.3409 62.0199 72.7036 62.0199C73.0657 62.0199 73.4279 61.8818 73.7044 61.6057L74.6602 60.651L79.2414 65.2268L66.1977 78.2546L61.5242 73.5867C61.85 73.3772 62.1618 73.1308 62.4544 72.8382L63.7137 71.5804C64.2673 71.0279 64.2679 70.1311 63.7151 69.5778ZM87.4917 71.3316L72.3125 86.4924C71.9574 86.8471 71.4821 87.0424 70.9742 87.0424C70.4662 87.0424 69.9909 86.8471 69.6357 86.4923L67.133 83.9927C66.7783 83.6386 66.583 83.1647 66.583 82.6583C66.583 82.152 66.7783 81.6781 67.133 81.3239L82.3122 66.1631C82.6674 65.8083 83.1426 65.613 83.6507 65.613C84.1586 65.613 84.6339 65.8083 84.99 66.164L87.4918 68.6588C87.8465 69.013 88.0418 69.4875 88.0418 69.9951C88.0417 70.5029 87.8464 70.9776 87.4917 71.3316Z" fill="white"/>
<path d="M36.0689 25.9551C36.3453 26.2311 36.7073 26.3689 37.0693 26.3689C37.4321 26.3689 37.7951 26.2302 38.0717 25.953C38.6242 25.3994 38.6233 24.5028 38.0697 23.9503L32.909 18.7999C32.3555 18.2473 31.4588 18.2481 30.9063 18.8018C30.3537 19.3555 30.3546 20.2521 30.9082 20.8046L36.0689 25.9551Z" fill="white"/>
<path d="M72.6796 26.3689C73.0417 26.3689 73.404 26.2308 73.6805 25.9548L78.8372 20.8043C79.3905 20.2516 79.3911 19.3548 78.8383 18.8015C78.2856 18.2481 77.389 18.2476 76.8355 18.8004L71.6788 23.9509C71.1254 24.5035 71.1249 25.4003 71.6777 25.9537C71.9543 26.2306 72.317 26.3689 72.6796 26.3689Z" fill="white"/>
<path d="M27.834 78.9194C27.2857 79.4771 27.2933 80.3739 27.8512 80.9222L27.8553 80.9261C28.1305 81.1966 28.4878 81.3314 28.845 81.3314C29.2116 81.3314 29.5782 81.1895 29.8559 80.907C30.4042 80.3492 30.3945 79.4505 29.8368 78.9022C29.2792 78.3539 28.3826 78.3616 27.834 78.9194Z" fill="white"/>
<path d="M67.1789 67.5376C67.3943 67.5376 67.6128 67.4885 67.818 67.3851C68.5163 67.0329 68.7969 66.1813 68.4448 65.4829C68.0925 64.7846 67.2407 64.5039 66.5425 64.8561L66.5347 64.8601C65.8363 65.2123 65.5597 66.062 65.9118 66.7603C66.1605 67.2537 66.6605 67.5376 67.1789 67.5376Z" fill="white"/>
</svg>
