<svg width="1024" height="821" viewBox="0 0 1024 821" fill="none" xmlns="http://www.w3.org/2000/svg">
<g filter="url(#filter0_bd)">
<path fill-rule="evenodd" clip-rule="evenodd" d="M0 0H1024V133H0V0Z" fill="#F9F9F9" fill-opacity="0.94"/>
</g>
<rect x="153.477" y="57.3276" width="719.501" height="48.1552" rx="10" fill="#767680" fill-opacity="0.12"/>
<path d="M847.578 79.415C847.798 79.415 847.965 79.3447 848.097 79.2129L851.516 75.7676C851.674 75.6094 851.744 75.4336 851.744 75.2314C851.744 75.0381 851.665 74.8447 851.516 74.6953L848.097 71.2236C847.965 71.083 847.798 71.0039 847.578 71.0039C847.183 71.0039 846.875 71.3291 846.875 71.7422C846.875 71.9268 846.945 72.1025 847.068 72.252L849.213 74.3438C848.765 74.2646 848.308 74.2295 847.859 74.2295C843.764 74.2295 840.485 77.499 840.485 81.5947C840.485 85.6904 843.772 88.9863 847.868 88.9863C851.955 88.9863 855.242 85.6904 855.242 81.5947C855.242 81.1641 854.935 80.8477 854.495 80.8477C854.073 80.8477 853.792 81.1641 853.792 81.5947C853.792 84.8906 851.155 87.5361 847.868 87.5361C844.572 87.5361 841.936 84.8906 841.936 81.5947C841.936 78.29 844.563 75.6621 847.859 75.6621C848.466 75.6621 849.011 75.7061 849.494 75.8027L847.077 78.2021C846.945 78.3428 846.875 78.5098 846.875 78.6943C846.875 79.1074 847.183 79.415 847.578 79.415Z" fill="black"/>
<path d="M172.391 87.167C172.839 87.167 173.067 86.9736 173.243 86.4814L174.271 83.6426H179.132L180.151 86.4814C180.327 86.9736 180.556 87.167 181.004 87.167C181.496 87.167 181.821 86.877 181.821 86.4199C181.821 86.2617 181.786 86.1211 181.725 85.9277L177.884 75.6797C177.673 75.1084 177.295 74.8359 176.697 74.8359C176.126 74.8359 175.739 75.1084 175.537 75.6709L171.696 85.9453C171.626 86.1387 171.6 86.2793 171.6 86.4287C171.6 86.8857 171.898 87.167 172.391 87.167ZM174.693 82.2891L176.671 76.752H176.724L178.692 82.2891H174.693ZM163.883 87.167C164.252 87.167 164.498 86.9824 164.647 86.5078L165.28 84.6797H168.33L168.963 86.5078C169.121 86.9912 169.367 87.167 169.736 87.167C170.185 87.167 170.501 86.877 170.501 86.4551C170.501 86.2969 170.466 86.1387 170.387 85.9189L167.926 79.3711C167.732 78.8438 167.372 78.5186 166.792 78.5186C166.238 78.5186 165.887 78.8438 165.693 79.3711L163.224 85.9189C163.145 86.1387 163.118 86.3057 163.118 86.4551C163.118 86.877 163.426 87.167 163.883 87.167ZM165.667 83.4756L166.748 80.2236H166.854L167.943 83.4756H165.667Z" fill="black"/>
<g clip-path="url(#clip0)">
<path d="M452.093 85.3178H458.279C459.127 85.3178 459.544 84.9008 459.544 83.978V79.1996C459.544 78.3725 459.202 77.9487 458.498 77.8803V76.2602C458.498 73.8198 456.885 72.6371 455.189 72.6371C453.487 72.6371 451.874 73.8198 451.874 76.2602V77.9077C451.225 78.0102 450.828 78.4272 450.828 79.1996V83.978C450.828 84.9008 451.245 85.3178 452.093 85.3178ZM452.981 76.1303C452.981 74.5444 453.993 73.6967 455.189 73.6967C456.379 73.6967 457.391 74.5444 457.391 76.1303V77.8666L452.981 77.8803V76.1303Z" fill="#4E8B43"/>
<path d="M468.366 84.8276H469.71V79.6088C469.71 78.4213 470.562 77.4682 471.663 77.4682C472.726 77.4682 473.421 78.1088 473.421 79.1088V84.8276H474.765V79.4135C474.765 78.3432 475.546 77.4682 476.718 77.4682C477.905 77.4682 478.491 78.0776 478.491 79.3198V84.8276H479.835V79.0073C479.835 77.2416 478.874 76.2573 477.155 76.2573C475.991 76.2573 475.03 76.8432 474.577 77.7338H474.452C474.062 76.8588 473.265 76.2573 472.124 76.2573C470.999 76.2573 470.155 76.7963 469.772 77.7338H469.647V76.4057H468.366V84.8276ZM487.866 82.6479C487.515 83.3901 486.78 83.7885 485.694 83.7885C484.265 83.7885 483.335 82.7338 483.265 81.0698V81.0073H489.319V80.4916C489.319 77.8745 487.937 76.2573 485.663 76.2573C483.351 76.2573 481.866 77.976 481.866 80.6245C481.866 83.2885 483.327 84.976 485.663 84.976C487.507 84.976 488.819 84.0854 489.21 82.6479H487.866ZM485.647 77.4448C486.983 77.4448 487.874 78.4291 487.905 79.9213H483.265C483.366 78.4291 484.304 77.4448 485.647 77.4448ZM491.429 84.8276H492.772V79.6088C492.772 78.4213 493.702 77.562 494.983 77.562C495.249 77.562 495.733 77.6088 495.843 77.6401V76.2963C495.671 76.2729 495.39 76.2573 495.171 76.2573C494.054 76.2573 493.085 76.8354 492.835 77.6557H492.71V76.4057H491.429V84.8276ZM504.257 78.9838C504.022 77.4838 502.772 76.2573 500.726 76.2573C498.366 76.2573 496.866 77.9604 496.866 80.5854C496.866 83.2651 498.374 84.976 500.733 84.976C502.757 84.976 504.015 83.8354 504.257 82.2885H502.897C502.647 83.2416 501.858 83.7651 500.726 83.7651C499.226 83.7651 498.257 82.5307 498.257 80.5854C498.257 78.6791 499.21 77.4682 500.726 77.4682C501.937 77.4682 502.679 78.1479 502.897 78.9838H504.257ZM507.788 80.0854H507.663V73.062H506.319V84.8276H507.663V81.6323L508.468 80.8823L511.624 84.8276H513.335L509.468 80.0151L513.093 76.4057H511.444L507.788 80.0854ZM517.038 84.976C518.163 84.976 519.085 84.4838 519.632 83.5854H519.757V84.8276H521.038V79.062C521.038 77.312 519.89 76.2573 517.835 76.2573C516.038 76.2573 514.71 77.1479 514.53 78.4995H515.89C516.077 77.8354 516.78 77.4526 517.788 77.4526C519.046 77.4526 519.694 78.0229 519.694 79.062V79.8276L517.265 79.976C515.304 80.0932 514.194 80.9604 514.194 82.4682C514.194 84.0073 515.405 84.976 517.038 84.976ZM517.288 83.7963C516.312 83.7963 515.585 83.2963 515.585 82.437C515.585 81.5932 516.147 81.1479 517.429 81.062L519.694 80.9135V81.687C519.694 82.8901 518.671 83.7963 517.288 83.7963ZM523.601 84.8276H524.944V73.062H523.601V84.8276ZM533.132 82.6479C532.78 83.3901 532.046 83.7885 530.96 83.7885C529.53 83.7885 528.601 82.7338 528.53 81.0698V81.0073H534.585V80.4916C534.585 77.8745 533.202 76.2573 530.929 76.2573C528.616 76.2573 527.132 77.976 527.132 80.6245C527.132 83.2885 528.593 84.976 530.929 84.976C532.772 84.976 534.085 84.0854 534.476 82.6479H533.132ZM530.913 77.4448C532.249 77.4448 533.14 78.4291 533.171 79.9213H528.53C528.632 78.4291 529.569 77.4448 530.913 77.4448ZM539.358 81.6713L541.351 84.851H542.944L540.046 80.5854L542.905 76.4291H541.382L539.405 79.562H539.28L537.28 76.4291H535.679L538.593 80.6401L535.71 84.851H537.233L539.233 81.6713H539.358ZM547.116 84.976C548.241 84.976 549.163 84.4838 549.71 83.5854H549.835V84.8276H551.116V79.062C551.116 77.312 549.968 76.2573 547.913 76.2573C546.116 76.2573 544.788 77.1479 544.608 78.4995H545.968C546.155 77.8354 546.858 77.4526 547.866 77.4526C549.124 77.4526 549.772 78.0229 549.772 79.062V79.8276L547.343 79.976C545.382 80.0932 544.272 80.9604 544.272 82.4682C544.272 84.0073 545.483 84.976 547.116 84.976ZM547.366 83.7963C546.39 83.7963 545.663 83.2963 545.663 82.437C545.663 81.5932 546.226 81.1479 547.507 81.062L549.772 80.9135V81.687C549.772 82.8901 548.749 83.7963 547.366 83.7963ZM554.71 84.9057C555.272 84.9057 555.726 84.4448 555.726 83.8901C555.726 83.3276 555.272 82.8745 554.71 82.8745C554.155 82.8745 553.694 83.3276 553.694 83.8901C553.694 84.4448 554.155 84.9057 554.71 84.9057ZM565.007 78.9838C564.772 77.4838 563.522 76.2573 561.476 76.2573C559.116 76.2573 557.616 77.9604 557.616 80.5854C557.616 83.2651 559.124 84.976 561.483 84.976C563.507 84.976 564.765 83.8354 565.007 82.2885H563.647C563.397 83.2416 562.608 83.7651 561.476 83.7651C559.976 83.7651 559.007 82.5307 559.007 80.5854C559.007 78.6791 559.96 77.4682 561.476 77.4682C562.687 77.4682 563.429 78.1479 563.647 78.9838H565.007ZM570.452 84.976C572.851 84.976 574.335 83.3198 574.335 80.6166C574.335 77.9057 572.851 76.2573 570.452 76.2573C568.054 76.2573 566.569 77.9057 566.569 80.6166C566.569 83.3198 568.054 84.976 570.452 84.976ZM570.452 83.7651C568.858 83.7651 567.96 82.6088 567.96 80.6166C567.96 78.6166 568.858 77.4682 570.452 77.4682C572.046 77.4682 572.944 78.6166 572.944 80.6166C572.944 82.6088 572.046 83.7651 570.452 83.7651ZM576.444 84.8276H577.788V79.6088C577.788 78.4213 578.64 77.4682 579.741 77.4682C580.804 77.4682 581.499 78.1088 581.499 79.1088V84.8276H582.843V79.4135C582.843 78.3432 583.624 77.4682 584.796 77.4682C585.983 77.4682 586.569 78.0776 586.569 79.3198V84.8276H587.913V79.0073C587.913 77.2416 586.952 76.2573 585.233 76.2573C584.069 76.2573 583.108 76.8432 582.655 77.7338H582.53C582.14 76.8588 581.343 76.2573 580.202 76.2573C579.077 76.2573 578.233 76.7963 577.851 77.7338H577.726V76.4057H576.444V84.8276Z" fill="#4E8B43"/>
</g>
<path d="M103.919 91.5073C104.186 91.5073 104.411 91.4048 104.585 91.2305L112.717 83.2837C112.912 83.0889 113.014 82.853 113.014 82.5967C113.014 82.3301 112.912 82.084 112.717 81.9097L104.596 73.9731C104.411 73.7886 104.186 73.686 103.919 73.686C103.386 73.686 102.986 74.0962 102.986 74.6294C102.986 74.8755 103.088 75.1216 103.252 75.2959L110.717 82.5967L103.252 89.8975C103.088 90.0718 102.986 90.3076 102.986 90.564C102.986 91.0972 103.386 91.5073 103.919 91.5073Z" fill="#CECECE"/>
<path d="M51.4146 91.2202C51.5889 91.3945 51.8145 91.4971 52.0811 91.4971C52.6143 91.4971 53.0142 91.0972 53.0142 90.564C53.0142 90.3076 52.9116 90.0718 52.7476 89.8975L45.2827 82.5967L52.7476 75.2959C52.9116 75.1216 53.0142 74.8755 53.0142 74.6294C53.0142 74.0962 52.6143 73.686 52.0811 73.686C51.8145 73.686 51.5889 73.7886 51.4146 73.9629L43.2935 81.9097C43.0986 82.0737 42.9858 82.3301 42.9858 82.5967C42.9858 82.853 43.0884 83.0889 43.2832 83.2837L51.4146 91.2202Z" fill="#2E7CF6"/>
<path d="M951.549 75.7055C950.769 74.7211 948.831 73.8495 946.668 73.8495C943.827 73.8495 941.531 75.3159 940.967 76.6899V91.0146C940.967 91.7939 941.469 92.0912 942.033 92.0912C942.474 92.0912 942.741 91.9579 943.017 91.7426C943.602 91.2402 944.781 90.5634 946.668 90.5634C948.565 90.5634 949.887 91.2197 950.4 91.6811C950.667 91.8964 950.985 92.0912 951.549 92.0912C952.113 92.0912 952.43 91.8759 952.697 91.6811C953.251 91.2504 954.543 90.5634 956.429 90.5634C958.326 90.5634 959.506 91.2504 960.09 91.7426C960.367 91.9579 960.623 92.0912 961.064 92.0912C961.628 92.0912 962.141 91.7939 962.141 91.0146V76.6899C961.577 75.3159 959.27 73.8495 956.429 73.8495C954.276 73.8495 952.338 74.7211 951.549 75.7055ZM942.617 77.1821C942.853 76.5463 944.34 75.3979 946.668 75.3979C949.006 75.3979 950.523 76.5566 950.728 77.1821V90.1533C949.754 89.4252 948.267 89.0151 946.668 89.0151C945.078 89.0151 943.592 89.4252 942.617 90.1943V77.1821ZM960.49 77.1821V90.1943C959.506 89.4252 958.029 89.0151 956.429 89.0151C954.83 89.0151 953.353 89.4252 952.379 90.1533V77.1821C952.584 76.5566 954.102 75.3979 956.429 75.3979C958.767 75.3979 960.254 76.5463 960.49 77.1821Z" fill="#2E7CF6"/>
<path d="M992.632 88.9536H994.529V90.7172C994.529 92.8295 995.606 93.8959 997.749 93.8959H1008.7C1010.84 93.8959 1011.92 92.8295 1011.92 90.7172V79.8173C1011.92 77.7153 1010.84 76.6489 1008.7 76.6489H1006.8V74.9877C1006.8 72.8754 1005.72 71.809 1003.58 71.809H992.632C990.479 71.809 989.413 72.8754 989.413 74.9877V85.7851C989.413 87.8974 990.479 88.9536 992.632 88.9536ZM992.653 87.3027C991.627 87.3027 991.064 86.7592 991.064 85.6928V75.08C991.064 74.0136 991.627 73.4599 992.653 73.4599H1003.55C1004.57 73.4599 1005.15 74.0136 1005.15 75.08V76.6489H997.749C995.606 76.6489 994.529 77.705 994.529 79.8173V87.3027H992.653ZM997.78 92.2451C996.754 92.2451 996.18 91.6913 996.18 90.6249V79.9096C996.18 78.8432 996.754 78.2997 997.78 78.2997H1008.68C1009.69 78.2997 1010.27 78.8432 1010.27 79.9096V90.6352C1010.27 91.6913 1009.69 92.2451 1008.68 92.2451H997.78Z" fill="#2E7CF6"/>
<path opacity="0.4" fill-rule="evenodd" clip-rule="evenodd" d="M986 20H1002.67C1003.59 20 1004.33 20.7462 1004.33 21.6667V27.6667C1004.33 28.5871 1003.59 29.3333 1002.67 29.3333H986C985.08 29.3333 984.333 28.5871 984.333 27.6667V21.6667C984.333 20.7462 985.08 20 986 20ZM983.333 21.6667C983.333 20.1939 984.527 19 986 19H1002.67C1004.14 19 1005.33 20.1939 1005.33 21.6667V27.6667C1005.33 29.1394 1004.14 30.3333 1002.67 30.3333H986C984.527 30.3333 983.333 29.1394 983.333 27.6667V21.6667ZM1007.66 24.6667C1007.66 25.5398 1007.14 26.3279 1006.33 26.6667V22.6667C1007.14 23.0054 1007.66 23.7935 1007.66 24.6667Z" fill="black"/>
<rect x="985.333" y="21" width="18" height="7.33333" rx="1.33333" fill="black"/>
<path fill-rule="evenodd" clip-rule="evenodd" d="M82.6366 22.2773C84.8525 22.2774 86.9837 23.1289 88.5896 24.6557C88.7105 24.7735 88.9038 24.772 89.0229 24.6523L90.1789 23.4857C90.2392 23.4249 90.2729 23.3427 90.2724 23.2571C90.2719 23.1715 90.2373 23.0897 90.1763 23.0297C85.9612 18.9901 79.3114 18.9901 75.0963 23.0297C75.0352 23.0896 75.0006 23.1715 75 23.257C74.9994 23.3426 75.033 23.4249 75.0933 23.4857L76.2496 24.6523C76.3686 24.7722 76.5621 24.7737 76.6829 24.6557C78.2891 23.1288 80.4205 22.2773 82.6366 22.2773ZM82.6366 26.073C83.8541 26.0729 85.0281 26.5255 85.9306 27.3427C86.0527 27.4586 86.2449 27.4561 86.3639 27.337L87.5186 26.1703C87.5794 26.1091 87.6131 26.0261 87.6123 25.9399C87.6114 25.8536 87.576 25.7713 87.5139 25.7113C84.7657 23.1549 80.5098 23.1549 77.7616 25.7113C77.6995 25.7713 77.6641 25.8536 77.6633 25.9399C77.6625 26.0262 77.6963 26.1092 77.7573 26.1703L78.9116 27.337C79.0306 27.4561 79.2229 27.4586 79.3449 27.3427C80.2468 26.526 81.4199 26.0735 82.6366 26.073ZM84.9496 28.6268C84.9514 28.7133 84.9174 28.7967 84.8556 28.8573L82.8583 30.873C82.7997 30.9322 82.7199 30.9656 82.6366 30.9656C82.5533 30.9656 82.4735 30.9322 82.4149 30.873L80.4173 28.8573C80.3556 28.7967 80.3216 28.7132 80.3234 28.6267C80.3253 28.5402 80.3627 28.4583 80.4269 28.4003C81.7025 27.3214 83.5707 27.3214 84.8463 28.4003C84.9104 28.4584 84.9478 28.5403 84.9496 28.6268Z" fill="black"/>
<path fill-rule="evenodd" clip-rule="evenodd" d="M957 19.3334H956C955.448 19.3334 955 19.7811 955 20.3334V29C955 29.5523 955.448 30 956 30H957C957.552 30 958 29.5523 958 29V20.3334C958 19.7811 957.552 19.3334 957 19.3334ZM951.333 21.6667H952.333C952.886 21.6667 953.333 22.1144 953.333 22.6667V29C953.333 29.5523 952.886 30 952.333 30H951.333C950.781 30 950.333 29.5523 950.333 29V22.6667C950.333 22.1144 950.781 21.6667 951.333 21.6667ZM947.667 24H946.667C946.114 24 945.667 24.4478 945.667 25V29C945.667 29.5523 946.114 30 946.667 30H947.667C948.219 30 948.667 29.5523 948.667 29V25C948.667 24.4478 948.219 24 947.667 24ZM943 26H942C941.448 26 941 26.4478 941 27V29C941 29.5523 941.448 30 942 30H943C943.552 30 944 29.5523 944 29V27C944 26.4478 943.552 26 943 26Z" fill="black"/>
<path d="M501.858 27.2393C504.367 27.2393 505.858 25.2773 505.858 21.9482C505.858 18.6807 504.272 16.8896 501.913 16.8896C499.767 16.8896 498.249 18.332 498.249 20.3486C498.249 22.2422 499.616 23.623 501.496 23.623C502.651 23.623 503.588 23.0898 504.053 22.1533H504.169C504.149 24.4707 503.321 25.7969 501.879 25.7969C501.031 25.7969 500.355 25.332 500.143 24.5801H498.386C498.673 26.1865 500.054 27.2393 501.858 27.2393ZM501.92 22.2627C500.772 22.2627 499.979 21.4561 499.979 20.2939C499.979 19.1797 500.813 18.3252 501.927 18.3252C503.041 18.3252 503.875 19.1934 503.875 20.3281C503.875 21.4492 503.062 22.2627 501.92 22.2627ZM508.674 20.6152C509.324 20.6152 509.768 20.1641 509.768 19.5557C509.768 18.9473 509.324 18.4961 508.674 18.4961C508.032 18.4961 507.58 18.9473 507.58 19.5557C507.58 20.1641 508.032 20.6152 508.674 20.6152ZM508.674 25.6328C509.324 25.6328 509.768 25.1748 509.768 24.5732C509.768 23.9648 509.324 23.5137 508.674 23.5137C508.032 23.5137 507.58 23.9648 507.58 24.5732C507.58 25.1748 508.032 25.6328 508.674 25.6328ZM516.303 27H517.992V25.1064H519.325V23.6504H517.992V17.1357H515.504C514.164 19.1729 512.762 21.4424 511.484 23.6641V25.1064H516.303V27ZM513.118 23.5889C514.082 21.9141 515.223 20.0889 516.235 18.5439H516.331V23.6914H513.118V23.5889ZM523.085 27H524.849V17.1357H523.092L520.515 18.9473V20.6084L522.969 18.8721H523.085V27Z" fill="black"/>
<path d="M27.9317 21.2773C28.4923 21.2773 28.9503 20.833 28.9503 20.2725C28.9503 19.7188 28.4923 19.2676 27.9317 19.2676C27.378 19.2676 26.92 19.7188 26.92 20.2725C26.92 20.833 27.378 21.2773 27.9317 21.2773ZM27.0909 30H28.7794V22.5283H27.0909V30ZM30.7826 20.1357V30H32.5463V26.7393H34.6859C36.682 26.7393 38.0765 25.4062 38.0765 23.458C38.0765 21.4756 36.7298 20.1357 34.7611 20.1357H30.7826ZM32.5463 21.5781H34.2963C35.5677 21.5781 36.2855 22.2344 36.2855 23.458C36.2855 24.6475 35.5472 25.3174 34.2894 25.3174H32.5463V21.5781ZM41.3512 30.123C42.3287 30.123 43.1491 29.6992 43.5661 28.9746H43.6823V30H45.3161V24.8936C45.3161 23.3145 44.236 22.3848 42.3151 22.3848C40.5377 22.3848 39.3004 23.2188 39.1637 24.5244H40.7633C40.9205 24.0117 41.4537 23.7314 42.233 23.7314C43.1491 23.7314 43.6412 24.1484 43.6412 24.8936V25.5361L41.7135 25.6523C39.8952 25.7549 38.8766 26.541 38.8766 27.8809C38.8766 29.248 39.9088 30.123 41.3512 30.123ZM41.8502 28.8174C41.0983 28.8174 40.5582 28.4414 40.5582 27.7988C40.5582 27.1768 41.0026 26.8281 41.9528 26.7666L43.6412 26.6504V27.2588C43.6412 28.1475 42.8756 28.8174 41.8502 28.8174ZM49.787 30.123C50.8261 30.123 51.6874 29.6377 52.1112 28.8174H52.2275V30H53.8681V19.6367H52.1728V23.7178H52.0566C51.6601 22.8975 50.8124 22.4053 49.787 22.4053C47.9003 22.4053 46.7109 23.8955 46.7109 26.2607C46.7109 28.6328 47.8935 30.123 49.787 30.123ZM50.3134 23.8203C51.4755 23.8203 52.1933 24.7568 52.1933 26.2676C52.1933 27.7852 51.4823 28.7148 50.3134 28.7148C49.1513 28.7148 48.4472 27.7988 48.4472 26.2676C48.4472 24.7432 49.1581 23.8203 50.3134 23.8203Z" fill="black"/>
<path d="M904.902 85.5884C905.343 85.5884 905.712 85.2193 905.712 84.7886V74.2579L905.65 72.7198L906.337 73.4478L907.896 75.1089C908.039 75.273 908.255 75.355 908.449 75.355C908.87 75.355 909.198 75.0474 909.198 74.627C909.198 74.4117 909.106 74.2476 908.952 74.0938L905.486 70.751C905.281 70.546 905.107 70.4742 904.902 70.4742C904.686 70.4742 904.512 70.546 904.307 70.751L900.841 74.0938C900.687 74.2476 900.595 74.4117 900.595 74.627C900.595 75.0474 900.903 75.355 901.333 75.355C901.528 75.355 901.754 75.273 901.897 75.1089L903.456 73.4478L904.143 72.7198L904.081 74.2579V84.7886C904.081 85.2193 904.461 85.5884 904.902 85.5884ZM899.016 93.6172H910.777C912.92 93.6172 913.997 92.5508 913.997 90.4385V80.2051C913.997 78.0928 912.92 77.0264 910.777 77.0264H907.916V78.6773H910.746C911.762 78.6773 912.346 79.231 912.346 80.2974V90.3463C912.346 91.4127 911.762 91.9664 910.746 91.9664H899.036C898.011 91.9664 897.447 91.4127 897.447 90.3463V80.2974C897.447 79.231 898.011 78.6773 899.036 78.6773H901.877V77.0264H899.016C896.873 77.0264 895.796 78.0928 895.796 80.2051V90.4385C895.796 92.5508 896.873 93.6172 899.016 93.6172Z" fill="#2E7CF6"/>
<path d="M70.7637 686.182V725H63.9375V686.182H53.5371V679.766H81.1348V686.182H70.7637ZM84.918 696.465H91.5098V699.014C92.7207 697.744 93.7949 696.875 94.7324 696.406C95.6895 695.918 96.8223 695.674 98.1309 695.674C99.8691 695.674 101.686 696.24 103.58 697.373L100.562 703.408C99.3125 702.51 98.0918 702.061 96.9004 702.061C93.3066 702.061 91.5098 704.775 91.5098 710.205V725H84.918V696.465ZM119.99 719.697L107.158 696.465H114.805L123.535 712.871L131.68 696.465H139.121L116.387 740.527H108.857L119.99 719.697ZM180.994 696.846L175.105 694.561L183.455 677.803L187.908 679.619L180.994 696.846ZM169.275 696.846L163.387 694.561L171.736 677.803L176.189 679.619L169.275 696.846ZM219.816 714.014H200.451L195.412 725H188.059L210.441 676.924L232.033 725H224.562L219.816 714.014ZM217.033 707.598L210.324 692.217L203.293 707.598H217.033ZM244.049 675.518V725H237.457V675.518H244.049ZM279.385 712.285H258.936C259.111 714.629 259.873 716.494 261.221 717.881C262.568 719.248 264.297 719.932 266.406 719.932C268.047 719.932 269.404 719.541 270.479 718.76C271.533 717.979 272.734 716.533 274.082 714.424L279.648 717.529C278.789 718.994 277.881 720.254 276.924 721.309C275.967 722.344 274.941 723.203 273.848 723.887C272.754 724.551 271.572 725.039 270.303 725.352C269.033 725.664 267.656 725.82 266.172 725.82C261.914 725.82 258.496 724.453 255.918 721.719C253.34 718.965 252.051 715.312 252.051 710.762C252.051 706.25 253.301 702.598 255.801 699.805C258.32 697.051 261.66 695.674 265.82 695.674C270.02 695.674 273.34 697.012 275.781 699.688C278.203 702.344 279.414 706.025 279.414 710.732L279.385 712.285ZM272.617 706.895C271.699 703.379 269.482 701.621 265.967 701.621C265.166 701.621 264.414 701.748 263.711 702.002C263.008 702.236 262.363 702.588 261.777 703.057C261.211 703.506 260.723 704.053 260.312 704.697C259.902 705.342 259.59 706.074 259.375 706.895H272.617ZM295.297 709.561L285.043 696.465H292.895L299.252 704.785L305.727 696.465H313.812L303.266 709.561L315.482 725H307.631L299.252 714.336L290.668 725H282.611L295.297 709.561ZM340.945 696.465H347.566V725H340.945V722.012C338.23 724.551 335.311 725.82 332.186 725.82C328.24 725.82 324.979 724.395 322.4 721.543C319.842 718.633 318.562 715 318.562 710.645C318.562 706.367 319.842 702.803 322.4 699.951C324.959 697.1 328.162 695.674 332.01 695.674C335.33 695.674 338.309 697.041 340.945 699.775V696.465ZM325.301 710.645C325.301 713.379 326.033 715.605 327.498 717.324C329.002 719.062 330.896 719.932 333.182 719.932C335.623 719.932 337.596 719.092 339.1 717.412C340.604 715.674 341.355 713.467 341.355 710.791C341.355 708.115 340.604 705.908 339.1 704.17C337.596 702.471 335.643 701.621 333.24 701.621C330.975 701.621 329.08 702.48 327.557 704.199C326.053 705.938 325.301 708.086 325.301 710.645ZM360.959 716.533L366.818 718.818L358.469 735.547L354.016 733.701L360.959 716.533ZM416.953 696.465H423.574V725H416.953V722.012C414.238 724.551 411.318 725.82 408.193 725.82C404.248 725.82 400.986 724.395 398.408 721.543C395.85 718.633 394.57 715 394.57 710.645C394.57 706.367 395.85 702.803 398.408 699.951C400.967 697.1 404.17 695.674 408.018 695.674C411.338 695.674 414.316 697.041 416.953 699.775V696.465ZM401.309 710.645C401.309 713.379 402.041 715.605 403.506 717.324C405.01 719.062 406.904 719.932 409.189 719.932C411.631 719.932 413.604 719.092 415.107 717.412C416.611 715.674 417.363 713.467 417.363 710.791C417.363 708.115 416.611 705.908 415.107 704.17C413.604 702.471 411.65 701.621 409.248 701.621C406.982 701.621 405.088 702.48 403.564 704.199C402.061 705.938 401.309 708.086 401.309 710.645ZM449.477 701.328L444.027 704.229C443.168 702.471 442.104 701.592 440.834 701.592C440.229 701.592 439.711 701.797 439.281 702.207C438.852 702.598 438.637 703.105 438.637 703.73C438.637 704.824 439.906 705.908 442.445 706.982C445.941 708.486 448.295 709.873 449.506 711.143C450.717 712.412 451.322 714.121 451.322 716.27C451.322 719.023 450.307 721.328 448.275 723.184C446.303 724.941 443.92 725.82 441.127 725.82C436.342 725.82 432.953 723.486 430.961 718.818L436.586 716.211C437.367 717.578 437.963 718.447 438.373 718.818C439.174 719.561 440.131 719.932 441.244 719.932C443.471 719.932 444.584 718.916 444.584 716.885C444.584 715.713 443.725 714.619 442.006 713.604C441.342 713.271 440.678 712.949 440.014 712.637C439.35 712.324 438.676 712.002 437.992 711.67C436.078 710.732 434.73 709.795 433.949 708.857C432.953 707.666 432.455 706.133 432.455 704.258C432.455 701.777 433.305 699.727 435.004 698.105C436.742 696.484 438.852 695.674 441.332 695.674C444.984 695.674 447.699 697.559 449.477 701.328ZM464.861 675.518V705.693L474.148 696.465H482.996L470.604 708.447L483.904 725H475.35L465.916 712.959L464.861 714.014V725H458.27V675.518H464.861ZM516.754 679.766V718.584H530.055V725H509.928V679.766H516.754ZM557.305 696.465H563.926V725H557.305V722.012C554.59 724.551 551.67 725.82 548.545 725.82C544.6 725.82 541.338 724.395 538.76 721.543C536.201 718.633 534.922 715 534.922 710.645C534.922 706.367 536.201 702.803 538.76 699.951C541.318 697.1 544.521 695.674 548.369 695.674C551.689 695.674 554.668 697.041 557.305 699.775V696.465ZM541.66 710.645C541.66 713.379 542.393 715.605 543.857 717.324C545.361 719.062 547.256 719.932 549.541 719.932C551.982 719.932 553.955 719.092 555.459 717.412C556.963 715.674 557.715 713.467 557.715 710.791C557.715 708.115 556.963 705.908 555.459 704.17C553.955 702.471 552.002 701.621 549.6 701.621C547.334 701.621 545.439 702.48 543.916 704.199C542.412 705.938 541.66 708.086 541.66 710.645ZM579.838 675.518V699.775C582.475 697.041 585.463 695.674 588.803 695.674C592.65 695.674 595.854 697.109 598.412 699.98C600.971 702.832 602.25 706.387 602.25 710.645C602.25 715.039 600.961 718.672 598.383 721.543C595.824 724.395 592.592 725.82 588.686 725.82C585.385 725.82 582.436 724.551 579.838 722.012V725H573.246V675.518H579.838ZM595.512 710.938C595.512 708.203 594.77 705.977 593.285 704.258C591.781 702.5 589.896 701.621 587.631 701.621C585.209 701.621 583.236 702.471 581.713 704.17C580.209 705.85 579.457 708.037 579.457 710.732C579.457 713.506 580.199 715.723 581.684 717.383C583.168 719.082 585.121 719.932 587.543 719.932C589.828 719.932 591.723 719.082 593.227 717.383C594.75 715.664 595.512 713.516 595.512 710.938ZM656.574 686.504L651.037 689.785C650.002 687.988 649.016 686.816 648.078 686.27C647.102 685.645 645.842 685.332 644.299 685.332C642.404 685.332 640.832 685.869 639.582 686.943C638.332 687.998 637.707 689.326 637.707 690.928C637.707 693.135 639.348 694.912 642.629 696.26L647.141 698.105C650.812 699.59 653.498 701.406 655.197 703.555C656.896 705.684 657.746 708.301 657.746 711.406C657.746 715.566 656.359 719.004 653.586 721.719C650.793 724.453 647.326 725.82 643.186 725.82C639.26 725.82 636.018 724.658 633.459 722.334C630.939 720.01 629.367 716.738 628.742 712.52L635.656 710.996C635.969 713.652 636.516 715.488 637.297 716.504C638.703 718.457 640.754 719.434 643.449 719.434C645.578 719.434 647.346 718.721 648.752 717.295C650.158 715.869 650.861 714.062 650.861 711.875C650.861 710.996 650.734 710.195 650.48 709.473C650.246 708.73 649.865 708.057 649.338 707.451C648.83 706.826 648.166 706.25 647.346 705.723C646.525 705.176 645.549 704.658 644.416 704.17L640.051 702.354C633.859 699.736 630.764 695.908 630.764 690.869C630.764 687.471 632.062 684.629 634.66 682.344C637.258 680.039 640.49 678.887 644.357 678.887C649.572 678.887 653.645 681.426 656.574 686.504ZM672.311 675.518V705.693L681.598 696.465H690.445L678.053 708.447L691.354 725H682.799L673.365 712.959L672.311 714.014V725H665.719V675.518H672.311ZM703.193 696.465V725H696.602V696.465H703.193ZM695.605 684.6C695.605 683.447 696.025 682.451 696.865 681.611C697.705 680.771 698.711 680.352 699.883 680.352C701.074 680.352 702.09 680.771 702.93 681.611C703.77 682.432 704.189 683.438 704.189 684.629C704.189 685.82 703.77 686.836 702.93 687.676C702.109 688.516 701.104 688.936 699.912 688.936C698.721 688.936 697.705 688.516 696.865 687.676C696.025 686.836 695.605 685.811 695.605 684.6ZM719.135 675.518V725H712.543V675.518H719.135ZM735.076 675.518V725H728.484V675.518H735.076ZM770.738 702.617V725H764.146V702.617H761.334V696.465H764.146V686.006H770.738V696.465H775.865V702.617H770.738ZM780.41 710.527C780.41 706.406 781.885 702.9 784.834 700.01C787.783 697.119 791.377 695.674 795.615 695.674C799.873 695.674 803.486 697.129 806.455 700.039C809.385 702.949 810.85 706.523 810.85 710.762C810.85 715.039 809.375 718.623 806.426 721.514C803.457 724.385 799.814 725.82 795.498 725.82C791.221 725.82 787.637 724.355 784.746 721.426C781.855 718.535 780.41 714.902 780.41 710.527ZM787.148 710.645C787.148 713.496 787.91 715.752 789.434 717.412C790.996 719.092 793.057 719.932 795.615 719.932C798.193 719.932 800.254 719.102 801.797 717.441C803.34 715.781 804.111 713.564 804.111 710.791C804.111 708.018 803.34 705.801 801.797 704.141C800.234 702.461 798.174 701.621 795.615 701.621C793.096 701.621 791.055 702.461 789.492 704.141C787.93 705.82 787.148 707.988 787.148 710.645ZM859.402 696.465H866.023V725H859.402V722.012C856.688 724.551 853.768 725.82 850.643 725.82C846.697 725.82 843.436 724.395 840.857 721.543C838.299 718.633 837.02 715 837.02 710.645C837.02 706.367 838.299 702.803 840.857 699.951C843.416 697.1 846.619 695.674 850.467 695.674C853.787 695.674 856.766 697.041 859.402 699.775V696.465ZM843.758 710.645C843.758 713.379 844.49 715.605 845.955 717.324C847.459 719.062 849.354 719.932 851.639 719.932C854.08 719.932 856.053 719.092 857.557 717.412C859.061 715.674 859.812 713.467 859.812 710.791C859.812 708.115 859.061 705.908 857.557 704.17C856.053 702.471 854.1 701.621 851.697 701.621C849.432 701.621 847.537 702.48 846.014 704.199C844.51 705.938 843.758 708.086 843.758 710.645ZM896.379 675.518H903V725H896.379V722.012C893.781 724.551 890.842 725.82 887.561 725.82C883.654 725.82 880.412 724.395 877.834 721.543C875.275 718.633 873.996 715 873.996 710.645C873.996 706.387 875.275 702.832 877.834 699.98C880.373 697.109 883.566 695.674 887.414 695.674C890.754 695.674 893.742 697.041 896.379 699.775V675.518ZM880.734 710.645C880.734 713.379 881.467 715.605 882.932 717.324C884.436 719.062 886.33 719.932 888.615 719.932C891.057 719.932 893.029 719.092 894.533 717.412C896.037 715.674 896.789 713.467 896.789 710.791C896.789 708.115 896.037 705.908 894.533 704.17C893.029 702.471 891.076 701.621 888.674 701.621C886.408 701.621 884.514 702.48 882.99 704.199C881.486 705.938 880.734 708.086 880.734 710.645ZM933.355 675.518H939.977V725H933.355V722.012C930.758 724.551 927.818 725.82 924.537 725.82C920.631 725.82 917.389 724.395 914.811 721.543C912.252 718.633 910.973 715 910.973 710.645C910.973 706.387 912.252 702.832 914.811 699.98C917.35 697.109 920.543 695.674 924.391 695.674C927.73 695.674 930.719 697.041 933.355 699.775V675.518ZM917.711 710.645C917.711 713.379 918.443 715.605 919.908 717.324C921.412 719.062 923.307 719.932 925.592 719.932C928.033 719.932 930.006 719.092 931.51 717.412C933.014 715.674 933.766 713.467 933.766 710.791C933.766 708.115 933.014 705.908 931.51 704.17C930.006 702.471 928.053 701.621 925.65 701.621C923.385 701.621 921.49 702.48 919.967 704.199C918.463 705.938 917.711 708.086 917.711 710.645ZM181.586 777.695V786.455C180.082 784.619 178.734 783.359 177.543 782.676C176.371 781.973 174.994 781.621 173.412 781.621C170.932 781.621 168.871 782.49 167.23 784.229C165.59 785.967 164.77 788.145 164.77 790.762C164.77 793.438 165.561 795.635 167.143 797.354C168.744 799.072 170.785 799.932 173.266 799.932C174.848 799.932 176.244 799.59 177.455 798.906C178.627 798.242 180.004 796.953 181.586 795.039V803.74C178.91 805.127 176.234 805.82 173.559 805.82C169.145 805.82 165.453 804.395 162.484 801.543C159.516 798.672 158.031 795.107 158.031 790.85C158.031 786.592 159.535 782.998 162.543 780.068C165.551 777.139 169.242 775.674 173.617 775.674C176.43 775.674 179.086 776.348 181.586 777.695ZM187.625 790.527C187.625 786.406 189.1 782.9 192.049 780.01C194.998 777.119 198.592 775.674 202.83 775.674C207.088 775.674 210.701 777.129 213.67 780.039C216.6 782.949 218.064 786.523 218.064 790.762C218.064 795.039 216.59 798.623 213.641 801.514C210.672 804.385 207.029 805.82 202.713 805.82C198.436 805.82 194.852 804.355 191.961 801.426C189.07 798.535 187.625 794.902 187.625 790.527ZM194.363 790.645C194.363 793.496 195.125 795.752 196.648 797.412C198.211 799.092 200.271 799.932 202.83 799.932C205.408 799.932 207.469 799.102 209.012 797.441C210.555 795.781 211.326 793.564 211.326 790.791C211.326 788.018 210.555 785.801 209.012 784.141C207.449 782.461 205.389 781.621 202.83 781.621C200.311 781.621 198.27 782.461 196.707 784.141C195.145 785.82 194.363 787.988 194.363 790.645ZM226.066 776.465H232.658V779.102C233.928 777.773 235.012 776.875 235.91 776.406C236.867 775.918 238.068 775.674 239.514 775.674C242.736 775.674 245.285 777.08 247.16 779.893C249.23 777.08 252.033 775.674 255.568 775.674C261.994 775.674 265.207 779.57 265.207 787.363V805H258.586V789.15C258.586 786.416 258.254 784.482 257.59 783.35C256.906 782.197 255.783 781.621 254.221 781.621C252.404 781.621 251.076 782.305 250.236 783.672C249.416 785.039 249.006 787.236 249.006 790.264V805H242.385V789.238C242.385 784.16 240.92 781.621 237.99 781.621C236.135 781.621 234.777 782.314 233.918 783.701C233.078 785.088 232.658 787.275 232.658 790.264V805H226.066V776.465ZM274.527 776.465H281.119V779.102C282.389 777.773 283.473 776.875 284.371 776.406C285.328 775.918 286.529 775.674 287.975 775.674C291.197 775.674 293.746 777.08 295.621 779.893C297.691 777.08 300.494 775.674 304.029 775.674C310.455 775.674 313.668 779.57 313.668 787.363V805H307.047V789.15C307.047 786.416 306.715 784.482 306.051 783.35C305.367 782.197 304.244 781.621 302.682 781.621C300.865 781.621 299.537 782.305 298.697 783.672C297.877 785.039 297.467 787.236 297.467 790.264V805H290.846V789.238C290.846 784.16 289.381 781.621 286.451 781.621C284.596 781.621 283.238 782.314 282.379 783.701C281.539 785.088 281.119 787.275 281.119 790.264V805H274.527V776.465ZM348.975 792.285H328.525C328.701 794.629 329.463 796.494 330.811 797.881C332.158 799.248 333.887 799.932 335.996 799.932C337.637 799.932 338.994 799.541 340.068 798.76C341.123 797.979 342.324 796.533 343.672 794.424L349.238 797.529C348.379 798.994 347.471 800.254 346.514 801.309C345.557 802.344 344.531 803.203 343.438 803.887C342.344 804.551 341.162 805.039 339.893 805.352C338.623 805.664 337.246 805.82 335.762 805.82C331.504 805.82 328.086 804.453 325.508 801.719C322.93 798.965 321.641 795.312 321.641 790.762C321.641 786.25 322.891 782.598 325.391 779.805C327.91 777.051 331.25 775.674 335.41 775.674C339.609 775.674 342.93 777.012 345.371 779.688C347.793 782.344 349.004 786.025 349.004 790.732L348.975 792.285ZM342.207 786.895C341.289 783.379 339.072 781.621 335.557 781.621C334.756 781.621 334.004 781.748 333.301 782.002C332.598 782.236 331.953 782.588 331.367 783.057C330.801 783.506 330.312 784.053 329.902 784.697C329.492 785.342 329.18 786.074 328.965 786.895H342.207ZM357.211 776.465H363.832V779.102C366.137 776.816 368.734 775.674 371.625 775.674C374.945 775.674 377.533 776.719 379.389 778.809C380.99 780.586 381.791 783.486 381.791 787.51V805H375.17V789.062C375.17 786.25 374.779 784.307 373.998 783.232C373.236 782.139 371.85 781.592 369.838 781.592C367.65 781.592 366.098 782.314 365.18 783.76C364.281 785.186 363.832 787.676 363.832 791.23V805H357.211V776.465ZM397.938 782.617V805H391.346V782.617H388.533V776.465H391.346V766.006H397.938V776.465H403.064V782.617H397.938ZM434.859 782.617V805H428.268V782.617H425.455V776.465H428.268V766.006H434.859V776.465H439.986V782.617H434.859ZM444.531 790.527C444.531 786.406 446.006 782.9 448.955 780.01C451.904 777.119 455.498 775.674 459.736 775.674C463.994 775.674 467.607 777.129 470.576 780.039C473.506 782.949 474.971 786.523 474.971 790.762C474.971 795.039 473.496 798.623 470.547 801.514C467.578 804.385 463.936 805.82 459.619 805.82C455.342 805.82 451.758 804.355 448.867 801.426C445.977 798.535 444.531 794.902 444.531 790.527ZM451.27 790.645C451.27 793.496 452.031 795.752 453.555 797.412C455.117 799.092 457.178 799.932 459.736 799.932C462.314 799.932 464.375 799.102 465.918 797.441C467.461 795.781 468.232 793.564 468.232 790.791C468.232 788.018 467.461 785.801 465.918 784.141C464.355 782.461 462.295 781.621 459.736 781.621C457.217 781.621 455.176 782.461 453.613 784.141C452.051 785.82 451.27 787.988 451.27 790.645ZM528.475 792.285H508.025C508.201 794.629 508.963 796.494 510.311 797.881C511.658 799.248 513.387 799.932 515.496 799.932C517.137 799.932 518.494 799.541 519.568 798.76C520.623 797.979 521.824 796.533 523.172 794.424L528.738 797.529C527.879 798.994 526.971 800.254 526.014 801.309C525.057 802.344 524.031 803.203 522.938 803.887C521.844 804.551 520.662 805.039 519.393 805.352C518.123 805.664 516.746 805.82 515.262 805.82C511.004 805.82 507.586 804.453 505.008 801.719C502.43 798.965 501.141 795.312 501.141 790.762C501.141 786.25 502.391 782.598 504.891 779.805C507.41 777.051 510.75 775.674 514.91 775.674C519.109 775.674 522.43 777.012 524.871 779.688C527.293 782.344 528.504 786.025 528.504 790.732L528.475 792.285ZM521.707 786.895C520.789 783.379 518.572 781.621 515.057 781.621C514.256 781.621 513.504 781.748 512.801 782.002C512.098 782.236 511.453 782.588 510.867 783.057C510.301 783.506 509.812 784.053 509.402 784.697C508.992 785.342 508.68 786.074 508.465 786.895H521.707ZM544.387 789.561L534.133 776.465H541.984L548.342 784.785L554.816 776.465H562.902L552.355 789.561L564.572 805H556.721L548.342 794.336L539.758 805H531.701L544.387 789.561ZM576.646 820.527H570.055V776.465H576.646V779.57C579.244 776.973 582.193 775.674 585.494 775.674C589.42 775.674 592.652 777.119 595.191 780.01C597.77 782.881 599.059 786.504 599.059 790.879C599.059 795.156 597.779 798.721 595.221 801.572C592.682 804.404 589.479 805.82 585.611 805.82C582.271 805.82 579.283 804.482 576.646 801.807V820.527ZM592.32 790.908C592.32 788.174 591.578 785.947 590.094 784.229C588.59 782.49 586.695 781.621 584.41 781.621C581.988 781.621 580.025 782.461 578.521 784.141C577.018 785.82 576.266 788.027 576.266 790.762C576.266 793.438 577.018 795.645 578.521 797.383C580.006 799.082 581.959 799.932 584.381 799.932C586.666 799.932 588.551 799.072 590.035 797.354C591.559 795.635 592.32 793.486 592.32 790.908ZM633.018 792.285H612.568C612.744 794.629 613.506 796.494 614.854 797.881C616.201 799.248 617.93 799.932 620.039 799.932C621.68 799.932 623.037 799.541 624.111 798.76C625.166 797.979 626.367 796.533 627.715 794.424L633.281 797.529C632.422 798.994 631.514 800.254 630.557 801.309C629.6 802.344 628.574 803.203 627.48 803.887C626.387 804.551 625.205 805.039 623.936 805.352C622.666 805.664 621.289 805.82 619.805 805.82C615.547 805.82 612.129 804.453 609.551 801.719C606.973 798.965 605.684 795.312 605.684 790.762C605.684 786.25 606.934 782.598 609.434 779.805C611.953 777.051 615.293 775.674 619.453 775.674C623.652 775.674 626.973 777.012 629.414 779.688C631.836 782.344 633.047 786.025 633.047 790.732L633.018 792.285ZM626.25 786.895C625.332 783.379 623.115 781.621 619.6 781.621C618.799 781.621 618.047 781.748 617.344 782.002C616.641 782.236 615.996 782.588 615.41 783.057C614.844 783.506 614.355 784.053 613.945 784.697C613.535 785.342 613.223 786.074 613.008 786.895H626.25ZM641.254 776.465H647.846V779.014C649.057 777.744 650.131 776.875 651.068 776.406C652.025 775.918 653.158 775.674 654.467 775.674C656.205 775.674 658.021 776.24 659.916 777.373L656.898 783.408C655.648 782.51 654.428 782.061 653.236 782.061C649.643 782.061 647.846 784.775 647.846 790.205V805H641.254V776.465ZM672.225 776.465V805H665.633V776.465H672.225ZM664.637 764.6C664.637 763.447 665.057 762.451 665.896 761.611C666.736 760.771 667.742 760.352 668.914 760.352C670.105 760.352 671.121 760.771 671.961 761.611C672.801 762.432 673.221 763.438 673.221 764.629C673.221 765.82 672.801 766.836 671.961 767.676C671.141 768.516 670.135 768.936 668.943 768.936C667.752 768.936 666.736 768.516 665.896 767.676C665.057 766.836 664.637 765.811 664.637 764.6ZM681.574 776.465H688.166V779.102C689.436 777.773 690.52 776.875 691.418 776.406C692.375 775.918 693.576 775.674 695.021 775.674C698.244 775.674 700.793 777.08 702.668 779.893C704.738 777.08 707.541 775.674 711.076 775.674C717.502 775.674 720.715 779.57 720.715 787.363V805H714.094V789.15C714.094 786.416 713.762 784.482 713.098 783.35C712.414 782.197 711.291 781.621 709.729 781.621C707.912 781.621 706.584 782.305 705.744 783.672C704.924 785.039 704.514 787.236 704.514 790.264V805H697.893V789.238C697.893 784.16 696.428 781.621 693.498 781.621C691.643 781.621 690.285 782.314 689.426 783.701C688.586 785.088 688.166 787.275 688.166 790.264V805H681.574V776.465ZM756.021 792.285H735.572C735.748 794.629 736.51 796.494 737.857 797.881C739.205 799.248 740.934 799.932 743.043 799.932C744.684 799.932 746.041 799.541 747.115 798.76C748.17 797.979 749.371 796.533 750.719 794.424L756.285 797.529C755.426 798.994 754.518 800.254 753.561 801.309C752.604 802.344 751.578 803.203 750.484 803.887C749.391 804.551 748.209 805.039 746.939 805.352C745.67 805.664 744.293 805.82 742.809 805.82C738.551 805.82 735.133 804.453 732.555 801.719C729.977 798.965 728.688 795.312 728.688 790.762C728.688 786.25 729.938 782.598 732.438 779.805C734.957 777.051 738.297 775.674 742.457 775.674C746.656 775.674 749.977 777.012 752.418 779.688C754.84 782.344 756.051 786.025 756.051 790.732L756.021 792.285ZM749.254 786.895C748.336 783.379 746.119 781.621 742.604 781.621C741.803 781.621 741.051 781.748 740.348 782.002C739.645 782.236 739 782.588 738.414 783.057C737.848 783.506 737.359 784.053 736.949 784.697C736.539 785.342 736.227 786.074 736.012 786.895H749.254ZM764.258 776.465H770.879V779.102C773.184 776.816 775.781 775.674 778.672 775.674C781.992 775.674 784.58 776.719 786.436 778.809C788.037 780.586 788.838 783.486 788.838 787.51V805H782.217V789.062C782.217 786.25 781.826 784.307 781.045 783.232C780.283 782.139 778.896 781.592 776.885 781.592C774.697 781.592 773.145 782.314 772.227 783.76C771.328 785.186 770.879 787.676 770.879 791.23V805H764.258V776.465ZM804.984 782.617V805H798.393V782.617H795.58V776.465H798.393V766.006H804.984V776.465H810.111V782.617H804.984ZM821.775 757.803L827.635 760.088L819.285 776.846L814.832 775L821.775 757.803ZM833.494 757.803L839.354 760.088L831.004 776.846L826.551 775L833.494 757.803Z" fill="black"/>
<g filter="url(#filter1_d)">
<rect x="51" y="215" width="904" height="286" rx="24" fill="white"/>
</g>
<path d="M102.246 336.461H121.758V318.766H128.584V364H121.758V342.877H102.246V364H95.4199V318.766H102.246V336.461ZM165.15 351.285H144.701C144.877 353.629 145.639 355.494 146.986 356.881C148.334 358.248 150.062 358.932 152.172 358.932C153.812 358.932 155.17 358.541 156.244 357.76C157.299 356.979 158.5 355.533 159.848 353.424L165.414 356.529C164.555 357.994 163.646 359.254 162.689 360.309C161.732 361.344 160.707 362.203 159.613 362.887C158.52 363.551 157.338 364.039 156.068 364.352C154.799 364.664 153.422 364.82 151.938 364.82C147.68 364.82 144.262 363.453 141.684 360.719C139.105 357.965 137.816 354.312 137.816 349.762C137.816 345.25 139.066 341.598 141.566 338.805C144.086 336.051 147.426 334.674 151.586 334.674C155.785 334.674 159.105 336.012 161.547 338.688C163.969 341.344 165.18 345.025 165.18 349.732L165.15 351.285ZM158.383 345.895C157.465 342.379 155.248 340.621 151.732 340.621C150.932 340.621 150.18 340.748 149.477 341.002C148.773 341.236 148.129 341.588 147.543 342.057C146.977 342.506 146.488 343.053 146.078 343.697C145.668 344.342 145.355 345.074 145.141 345.895H158.383ZM179.979 314.518V364H173.387V314.518H179.979ZM195.92 314.518V364H189.328V314.518H195.92ZM203.922 349.527C203.922 345.406 205.396 341.9 208.346 339.01C211.295 336.119 214.889 334.674 219.127 334.674C223.385 334.674 226.998 336.129 229.967 339.039C232.896 341.949 234.361 345.523 234.361 349.762C234.361 354.039 232.887 357.623 229.938 360.514C226.969 363.385 223.326 364.82 219.01 364.82C214.732 364.82 211.148 363.355 208.258 360.426C205.367 357.535 203.922 353.902 203.922 349.527ZM210.66 349.645C210.66 352.496 211.422 354.752 212.945 356.412C214.508 358.092 216.568 358.932 219.127 358.932C221.705 358.932 223.766 358.102 225.309 356.441C226.852 354.781 227.623 352.564 227.623 349.791C227.623 347.018 226.852 344.801 225.309 343.141C223.746 341.461 221.686 340.621 219.127 340.621C216.607 340.621 214.566 341.461 213.004 343.141C211.441 344.82 210.66 346.988 210.66 349.645ZM289.711 353.014H270.346L265.307 364H257.953L280.336 315.924L301.928 364H294.457L289.711 353.014ZM286.928 346.598L280.219 331.217L273.188 346.598H286.928ZM307.352 335.465H313.973V338.102C316.277 335.816 318.875 334.674 321.766 334.674C325.086 334.674 327.674 335.719 329.529 337.809C331.131 339.586 331.932 342.486 331.932 346.51V364H325.311V348.062C325.311 345.25 324.92 343.307 324.139 342.232C323.377 341.139 321.99 340.592 319.979 340.592C317.791 340.592 316.238 341.314 315.32 342.76C314.422 344.186 313.973 346.676 313.973 350.23V364H307.352V335.465ZM362.316 314.518H368.938V364H362.316V361.012C359.719 363.551 356.779 364.82 353.498 364.82C349.592 364.82 346.35 363.395 343.771 360.543C341.213 357.633 339.934 354 339.934 349.645C339.934 345.387 341.213 341.832 343.771 338.98C346.311 336.109 349.504 334.674 353.352 334.674C356.691 334.674 359.68 336.041 362.316 338.775V314.518ZM346.672 349.645C346.672 352.379 347.404 354.605 348.869 356.324C350.373 358.062 352.268 358.932 354.553 358.932C356.994 358.932 358.967 358.092 360.471 356.412C361.975 354.674 362.727 352.467 362.727 349.791C362.727 347.115 361.975 344.908 360.471 343.17C358.967 341.471 357.014 340.621 354.611 340.621C352.346 340.621 350.451 341.48 348.928 343.199C347.424 344.938 346.672 347.086 346.672 349.645ZM378.258 335.465H384.85V338.014C386.061 336.744 387.135 335.875 388.072 335.406C389.029 334.918 390.162 334.674 391.471 334.674C393.209 334.674 395.025 335.24 396.92 336.373L393.902 342.408C392.652 341.51 391.432 341.061 390.24 341.061C386.646 341.061 384.85 343.775 384.85 349.205V364H378.258V335.465ZM427.275 351.285H406.826C407.002 353.629 407.764 355.494 409.111 356.881C410.459 358.248 412.188 358.932 414.297 358.932C415.938 358.932 417.295 358.541 418.369 357.76C419.424 356.979 420.625 355.533 421.973 353.424L427.539 356.529C426.68 357.994 425.771 359.254 424.814 360.309C423.857 361.344 422.832 362.203 421.738 362.887C420.645 363.551 419.463 364.039 418.193 364.352C416.924 364.664 415.547 364.82 414.062 364.82C409.805 364.82 406.387 363.453 403.809 360.719C401.23 357.965 399.941 354.312 399.941 349.762C399.941 345.25 401.191 341.598 403.691 338.805C406.211 336.051 409.551 334.674 413.711 334.674C417.91 334.674 421.23 336.012 423.672 338.688C426.094 341.344 427.305 345.025 427.305 349.732L427.275 351.285ZM420.508 345.895C419.59 342.379 417.373 340.621 413.857 340.621C413.057 340.621 412.305 340.748 411.602 341.002C410.898 341.236 410.254 341.588 409.668 342.057C409.102 342.506 408.613 343.053 408.203 343.697C407.793 344.342 407.48 345.074 407.266 345.895H420.508ZM438.148 335.465L445.619 351.754L453.676 332.857L461.791 351.754L469.174 335.465H476.557L461.615 366.139L453.676 347.77L445.648 366.139L430.736 335.465H438.148ZM483.768 360.719C483.768 359.625 484.168 358.678 484.969 357.877C485.77 357.076 486.727 356.676 487.84 356.676C488.953 356.676 489.91 357.076 490.711 357.877C491.512 358.678 491.912 359.635 491.912 360.748C491.912 361.881 491.512 362.848 490.711 363.648C489.93 364.43 488.973 364.82 487.84 364.82C486.688 364.82 485.721 364.43 484.939 363.648C484.158 362.867 483.768 361.891 483.768 360.719ZM484.529 353.922V318.766H491.15V353.922H484.529Z" fill="black"/>
<path d="M104.46 399.613L111.331 417.25L118.508 398.332L125.378 417.25L132.676 399.613H137L125.208 427.675L118.423 408.979L111.348 427.692L100.137 399.613H104.46ZM153.654 418.583H141.725C141.828 419.95 142.272 421.038 143.058 421.847C143.844 422.645 144.853 423.043 146.083 423.043C147.04 423.043 147.832 422.816 148.458 422.36C149.074 421.904 149.774 421.061 150.561 419.831L153.808 421.642C153.306 422.497 152.777 423.231 152.218 423.847C151.66 424.451 151.062 424.952 150.424 425.351C149.786 425.738 149.097 426.023 148.356 426.205C147.615 426.387 146.812 426.479 145.946 426.479C143.463 426.479 141.469 425.681 139.965 424.086C138.461 422.479 137.709 420.349 137.709 417.694C137.709 415.062 138.438 412.932 139.896 411.303C141.366 409.696 143.314 408.893 145.741 408.893C148.191 408.893 150.128 409.674 151.552 411.234C152.965 412.784 153.671 414.931 153.671 417.677L153.654 418.583ZM149.706 415.438C149.171 413.388 147.877 412.362 145.827 412.362C145.36 412.362 144.921 412.436 144.511 412.584C144.101 412.721 143.725 412.926 143.383 413.2C143.052 413.462 142.768 413.781 142.528 414.157C142.289 414.533 142.107 414.96 141.981 415.438H149.706ZM162.515 398.468L165.933 399.801L161.062 409.577L158.465 408.5L162.515 398.468ZM170.949 409.354H174.794V410.841C175.501 410.101 176.127 409.594 176.674 409.32C177.233 409.035 177.893 408.893 178.657 408.893C179.671 408.893 180.73 409.223 181.835 409.884L180.075 413.405C179.346 412.881 178.634 412.619 177.939 412.619C175.843 412.619 174.794 414.202 174.794 417.37V426H170.949V409.354ZM199.959 418.583H188.031C188.133 419.95 188.578 421.038 189.364 421.847C190.15 422.645 191.158 423.043 192.389 423.043C193.346 423.043 194.138 422.816 194.764 422.36C195.379 421.904 196.08 421.061 196.866 419.831L200.113 421.642C199.612 422.497 199.082 423.231 198.524 423.847C197.966 424.451 197.368 424.952 196.729 425.351C196.091 425.738 195.402 426.023 194.662 426.205C193.921 426.387 193.118 426.479 192.252 426.479C189.768 426.479 187.774 425.681 186.271 424.086C184.767 422.479 184.015 420.349 184.015 417.694C184.015 415.062 184.744 412.932 186.202 411.303C187.672 409.696 189.62 408.893 192.047 408.893C194.496 408.893 196.433 409.674 197.857 411.234C199.27 412.784 199.977 414.931 199.977 417.677L199.959 418.583ZM196.012 415.438C195.476 413.388 194.183 412.362 192.132 412.362C191.665 412.362 191.227 412.436 190.816 412.584C190.406 412.721 190.03 412.926 189.688 413.2C189.358 413.462 189.073 413.781 188.834 414.157C188.595 414.533 188.412 414.96 188.287 415.438H196.012ZM216.981 409.354H220.827V410.841C221.533 410.101 222.16 409.594 222.707 409.32C223.265 409.035 223.926 408.893 224.689 408.893C225.703 408.893 226.763 409.223 227.868 409.884L226.107 413.405C225.378 412.881 224.666 412.619 223.971 412.619C221.875 412.619 220.827 414.202 220.827 417.37V426H216.981V409.354ZM245.992 418.583H234.063C234.166 419.95 234.61 421.038 235.396 421.847C236.182 422.645 237.19 423.043 238.421 423.043C239.378 423.043 240.17 422.816 240.796 422.36C241.412 421.904 242.112 421.061 242.898 419.831L246.146 421.642C245.644 422.497 245.114 423.231 244.556 423.847C243.998 424.451 243.4 424.952 242.762 425.351C242.124 425.738 241.434 426.023 240.694 426.205C239.953 426.387 239.15 426.479 238.284 426.479C235.8 426.479 233.807 425.681 232.303 424.086C230.799 422.479 230.047 420.349 230.047 417.694C230.047 415.062 230.776 412.932 232.234 411.303C233.704 409.696 235.652 408.893 238.079 408.893C240.529 408.893 242.465 409.674 243.89 411.234C245.302 412.784 246.009 414.931 246.009 417.677L245.992 418.583ZM242.044 415.438C241.508 413.388 240.215 412.362 238.165 412.362C237.697 412.362 237.259 412.436 236.849 412.584C236.438 412.721 236.062 412.926 235.721 413.2C235.39 413.462 235.105 413.781 234.866 414.157C234.627 414.533 234.445 414.96 234.319 415.438H242.044ZM263.483 409.354H267.346V426H263.483V424.257C261.9 425.738 260.196 426.479 258.374 426.479C256.072 426.479 254.169 425.647 252.666 423.983C251.173 422.286 250.427 420.167 250.427 417.626C250.427 415.131 251.173 413.052 252.666 411.388C254.158 409.725 256.027 408.893 258.271 408.893C260.208 408.893 261.945 409.691 263.483 411.286V409.354ZM254.357 417.626C254.357 419.221 254.785 420.52 255.639 421.522C256.516 422.536 257.622 423.043 258.955 423.043C260.379 423.043 261.529 422.554 262.407 421.574C263.284 420.56 263.723 419.272 263.723 417.711C263.723 416.151 263.284 414.863 262.407 413.849C261.529 412.858 260.39 412.362 258.989 412.362C257.667 412.362 256.562 412.864 255.673 413.866C254.796 414.88 254.357 416.133 254.357 417.626ZM285.47 397.135H289.332V426H285.47V424.257C283.954 425.738 282.24 426.479 280.326 426.479C278.047 426.479 276.156 425.647 274.652 423.983C273.159 422.286 272.413 420.167 272.413 417.626C272.413 415.142 273.159 413.069 274.652 411.405C276.133 409.73 277.996 408.893 280.24 408.893C282.188 408.893 283.932 409.691 285.47 411.286V397.135ZM276.344 417.626C276.344 419.221 276.771 420.52 277.625 421.522C278.503 422.536 279.608 423.043 280.941 423.043C282.365 423.043 283.516 422.554 284.393 421.574C285.27 420.56 285.709 419.272 285.709 417.711C285.709 416.151 285.27 414.863 284.393 413.849C283.516 412.858 282.376 412.362 280.975 412.362C279.653 412.362 278.548 412.864 277.66 413.866C276.782 414.88 276.344 416.133 276.344 417.626ZM300.432 422.907L292.947 409.354H297.407L302.5 418.925L307.251 409.354H311.592L298.33 435.058H293.938L300.432 422.907ZM330.989 412.943V426H327.144V412.943H325.503V409.354H327.144V403.253H330.989V409.354H333.98V412.943H330.989ZM337.048 417.558C337.048 415.154 337.908 413.109 339.628 411.422C341.349 409.736 343.445 408.893 345.917 408.893C348.401 408.893 350.509 409.742 352.241 411.439C353.95 413.137 354.804 415.222 354.804 417.694C354.804 420.189 353.944 422.28 352.224 423.966C350.492 425.641 348.367 426.479 345.849 426.479C343.354 426.479 341.263 425.624 339.577 423.915C337.891 422.229 337.048 420.11 337.048 417.558ZM340.979 417.626C340.979 419.289 341.423 420.605 342.312 421.574C343.223 422.554 344.425 423.043 345.917 423.043C347.421 423.043 348.623 422.559 349.523 421.591C350.424 420.622 350.874 419.329 350.874 417.711C350.874 416.094 350.424 414.8 349.523 413.832C348.612 412.852 347.41 412.362 345.917 412.362C344.448 412.362 343.257 412.852 342.346 413.832C341.434 414.812 340.979 416.076 340.979 417.626ZM371.689 397.135H375.535V410.739C376.902 409.508 378.411 408.893 380.063 408.893C381.943 408.893 383.447 409.503 384.575 410.722C385.532 411.781 386.011 413.473 386.011 415.797V426H382.166V416.156C382.166 414.823 381.926 413.861 381.448 413.268C380.981 412.664 380.223 412.362 379.175 412.362C377.83 412.362 376.885 412.778 376.338 413.61C375.802 414.453 375.535 415.9 375.535 417.951V426H371.689V397.135ZM407.057 418.583H395.128C395.231 419.95 395.675 421.038 396.461 421.847C397.248 422.645 398.256 423.043 399.486 423.043C400.443 423.043 401.235 422.816 401.862 422.36C402.477 421.904 403.178 421.061 403.964 419.831L407.211 421.642C406.71 422.497 406.18 423.231 405.622 423.847C405.063 424.451 404.465 424.952 403.827 425.351C403.189 425.738 402.5 426.023 401.759 426.205C401.019 426.387 400.215 426.479 399.35 426.479C396.866 426.479 394.872 425.681 393.368 424.086C391.864 422.479 391.112 420.349 391.112 417.694C391.112 415.062 391.841 412.932 393.3 411.303C394.77 409.696 396.718 408.893 399.145 408.893C401.594 408.893 403.531 409.674 404.955 411.234C406.368 412.784 407.074 414.931 407.074 417.677L407.057 418.583ZM403.109 415.438C402.574 413.388 401.281 412.362 399.23 412.362C398.763 412.362 398.324 412.436 397.914 412.584C397.504 412.721 397.128 412.926 396.786 413.2C396.456 413.462 396.171 413.781 395.932 414.157C395.692 414.533 395.51 414.96 395.385 415.438H403.109ZM416.124 397.135V426H412.278V397.135H416.124ZM425.839 435.058H421.994V409.354H425.839V411.166C427.355 409.651 429.075 408.893 431 408.893C433.291 408.893 435.176 409.736 436.657 411.422C438.161 413.097 438.913 415.211 438.913 417.763C438.913 420.258 438.167 422.337 436.674 424C435.193 425.653 433.325 426.479 431.069 426.479C429.121 426.479 427.377 425.698 425.839 424.137V435.058ZM434.982 417.78C434.982 416.185 434.549 414.886 433.684 413.883C432.806 412.869 431.701 412.362 430.368 412.362C428.955 412.362 427.81 412.852 426.933 413.832C426.056 414.812 425.617 416.099 425.617 417.694C425.617 419.255 426.056 420.543 426.933 421.557C427.799 422.548 428.938 423.043 430.351 423.043C431.684 423.043 432.784 422.542 433.649 421.54C434.538 420.537 434.982 419.284 434.982 417.78ZM444.579 424.086C444.579 423.448 444.812 422.895 445.279 422.428C445.746 421.961 446.305 421.728 446.954 421.728C447.604 421.728 448.162 421.961 448.629 422.428C449.096 422.895 449.33 423.454 449.33 424.103C449.33 424.764 449.096 425.328 448.629 425.795C448.173 426.251 447.615 426.479 446.954 426.479C446.282 426.479 445.718 426.251 445.262 425.795C444.806 425.339 444.579 424.77 444.579 424.086Z" fill="#939393"/>
<path d="M743 477.497C808.963 477.497 862.436 474.375 862.436 470.524C862.436 466.673 808.963 463.551 743 463.551C677.037 463.551 623.564 466.673 623.564 470.524C623.564 474.375 677.037 477.497 743 477.497Z" fill="#F5F5F5"/>
<path d="M638.656 301.29C631.349 320.375 630.188 341.265 635.336 361.042C640.484 380.818 651.683 398.492 667.368 411.591C722.192 457.483 844.092 464.894 853.449 371.699C854.101 365.294 853.936 358.831 852.956 352.467C850.695 338.047 843.285 327.593 829.579 322.197C809.331 314.226 785.295 317.805 766.507 306.828C746.591 295.198 737.9 270.792 717.843 259.396C699.701 249.096 673.491 258.127 659.082 270.928C649.885 279.145 643.116 289.752 638.656 301.29Z" fill="#407BFF"/>
<path opacity="0.9" d="M638.656 301.29C631.349 320.375 630.188 341.265 635.336 361.042C640.484 380.818 651.683 398.492 667.368 411.591C722.192 457.483 844.092 464.894 853.449 371.699C854.101 365.294 853.936 358.831 852.956 352.467C850.695 338.047 843.285 327.593 829.579 322.197C809.331 314.226 785.295 317.805 766.507 306.828C746.591 295.198 737.9 270.792 717.843 259.396C699.701 249.096 673.491 258.127 659.082 270.928C649.885 279.145 643.116 289.752 638.656 301.29Z" fill="white"/>
<path d="M669.24 286.642C669.24 286.642 665.322 285.767 664.768 280.716C664.257 276.028 666.345 275.098 666.345 275.098C666.345 275.098 663.678 270.305 668.131 267.552C672.585 264.798 679.404 268.47 682.028 267.225C684.652 265.981 687.572 266.677 686.741 270.373C685.909 274.069 682.016 275.03 682.016 275.03L673.028 273.453C673.028 273.453 676.903 283.556 674.605 285.459C672.308 287.362 669.24 286.642 669.24 286.642Z" fill="#263238"/>
<path d="M684.899 271.753C684.899 271.753 686.839 279.293 684.899 280.593C682.958 281.892 682.539 272.868 682.539 272.868L684.899 271.753Z" fill="#263238"/>
<path d="M670.601 344.78L668.673 348.907L665.254 348.414C662.033 348.932 660.69 347.102 660.69 347.102L658.663 345.254C647.335 334.647 645.425 329.238 646.399 324.969C647.427 320.46 654.253 307.198 656.31 304.111C658.367 301.025 659.92 300.181 659.92 300.181C663.653 298.574 666.48 299.732 667.78 303.723C668.833 306.951 666.443 310.321 664.601 312.754C662.336 315.733 660.242 318.838 658.331 322.056C657.715 323.115 657.099 324.193 656.519 325.277C656.267 325.745 654.875 327.778 655.029 328.191C655.977 330.834 660.745 338.336 662.421 340.936L663 341.835C669.184 342.722 670.601 344.78 670.601 344.78Z" fill="#263238"/>
<path d="M734.949 301.192L731.357 303.243C731.357 303.243 730.581 304.771 729.3 306.908C726.386 311.781 720.873 319.844 716.001 320.386C709.6 320.922 702.874 317.959 696.116 313.425C689.359 308.892 691.742 298.518 691.742 298.518C691.742 298.518 695.777 299.652 702.023 304.272C708.27 308.892 713.567 311.713 715.107 312.31C715.107 312.31 720.405 310.604 726.14 303.939L727.766 298.715L733.156 296.867L734.949 301.192Z" fill="#263238"/>
<path d="M659.692 316.043C659.926 316.376 666 346.19 666 346.19H694.373C694.373 346.19 694.625 327.963 695.094 323.639C695.562 319.314 698.432 301.463 691.743 298.518C691.743 298.518 684.93 296.898 679.903 296.83C676.877 296.789 673.854 297.047 670.879 297.6C670.879 297.6 662.175 298.062 659.914 300.169C657.653 302.276 659.692 316.043 659.692 316.043Z" fill="#263238"/>
<path d="M694.373 345.79C694.373 345.79 693.892 388.793 692.605 399.08C691.317 409.367 687.979 453.824 687.979 453.824L679.552 451.797C679.552 451.797 678.936 419.439 678.055 403.368C677.174 387.296 677.371 368.256 677.371 368.256C677.371 368.256 671.211 408.296 668.84 412.152C666.468 416.008 656.821 438.295 650.6 449.432L643.738 443.432C643.738 443.432 654.912 407.864 656.821 401.864C658.731 395.865 660.394 351.352 666 346.19L694.373 345.79Z" fill="#407BFF"/>
<path d="M649.559 448.126L647.846 450.744L645.536 454.28L640.818 451.828L642.752 447.923L644.193 445.028L649.559 448.126Z" fill="#CE7A63"/>
<path d="M734.949 301.192L731.357 303.243C731.357 303.243 730.581 304.771 729.3 306.908L726.14 303.939L727.766 298.715L733.156 296.867L734.949 301.192Z" fill="#CE7A63"/>
<path opacity="0.3" d="M694.367 345.79C694.367 345.79 693.892 388.793 692.605 399.074C691.317 409.355 687.979 453.824 687.979 453.824L679.657 452.426C679.657 452.426 678.887 419.439 678.036 403.361C677.796 398.778 677.371 395.292 677.279 392.612C677.186 389.933 677.205 385.22 677.279 380.606C677.359 373.929 677.507 367.436 677.507 367.436L677.322 368.619C677.322 368.791 677.266 368.982 677.229 369.186L677.193 369.432C675.88 377.723 670.879 408.788 668.846 412.127C666.462 416.008 656.821 438.295 650.6 449.432L643.738 443.432C643.738 443.432 654.887 407.858 656.815 401.864C658.743 395.871 660.388 351.352 665.994 346.184L694.367 345.79Z" fill="black"/>
<path opacity="0.2" d="M677.297 368.613C677.297 368.785 677.242 368.976 677.205 369.18L677.297 368.613Z" fill="black"/>
<path opacity="0.2" d="M678.646 359.983C678.646 359.983 678.486 372.303 677.254 380.6C677.334 373.923 677.482 367.43 677.482 367.43L678.646 359.983Z" fill="black"/>
<path d="M681.08 295.654C681.906 296.298 682.846 296.781 683.852 297.077C683.852 297.077 682.416 298.802 677.815 298.463C676.022 298.327 673.743 299.307 670.885 297.6C670.885 297.6 672.08 290.775 671.556 286.734C671.556 286.734 666.831 284.707 667.959 281.634C668.981 278.837 672.166 282.046 672.745 282.656C672.178 281.935 668.778 277.396 671.254 273.681C672.047 272.495 673.091 271.498 674.312 270.76C675.533 270.023 676.901 269.562 678.32 269.412L682.225 270.459L683.796 274.155C683.796 274.155 685.897 277.001 686.044 282.699C686.192 288.397 682.897 290.418 680.5 291.095C680.5 291.095 680.433 291.711 680.433 292.543C680.402 293.658 680.507 295.13 681.08 295.654Z" fill="#CE7A63"/>
<path d="M682.318 283.149L681.702 278.547L684.295 282.17C684.05 282.459 683.748 282.695 683.408 282.864C683.067 283.032 682.697 283.129 682.318 283.149Z" fill="#BA4D3C"/>
<path d="M677.815 283.438C678.175 283.905 678.663 284.256 679.221 284.448C679.778 284.639 680.379 284.663 680.95 284.516" stroke="#263238" stroke-linecap="round" stroke-linejoin="round"/>
<path d="M676.638 277.075C676.638 277.075 677.377 275.461 678.893 275.708" stroke="#263238" stroke-linecap="round" stroke-linejoin="round"/>
<path d="M683.297 275.104C683.748 275.045 684.207 275.094 684.635 275.247C685.064 275.401 685.45 275.653 685.761 275.985" stroke="#263238" stroke-linecap="round" stroke-linejoin="round"/>
<path d="M679.398 279.17C679.398 279.619 679.17 279.983 678.893 279.983C678.615 279.983 678.387 279.619 678.387 279.17C678.387 278.72 678.615 278.363 678.893 278.363C679.17 278.363 679.398 278.726 679.398 279.17Z" fill="#263238"/>
<path d="M684.523 278.837C684.523 279.28 684.295 279.644 684.018 279.644C683.741 279.644 683.513 279.28 683.513 278.837C683.513 278.393 683.741 278.024 684.018 278.024C684.295 278.024 684.523 278.387 684.523 278.837Z" fill="#263238"/>
<path d="M675.991 300.557L679.946 299.953L680.913 303.779L679.071 307.204H678.012L675.991 304.13V300.557Z" fill="#407BFF"/>
<path d="M678.012 307.204L675.991 325.277L679.687 328.838L682.355 325.197L679.071 307.204H678.012Z" fill="#407BFF"/>
<path opacity="0.3" d="M675.991 300.557L679.946 299.953L680.913 303.779L679.071 307.204H678.012L675.991 304.13V300.557Z" fill="black"/>
<path opacity="0.3" d="M678.012 307.204L675.991 325.277L679.687 328.838L682.355 325.197L679.071 307.204H678.012Z" fill="black"/>
<path d="M677.815 298.463L679.817 303.736C679.817 303.736 684.991 301.155 685.749 296.83L682.053 295.561C680.767 296.702 679.343 297.676 677.815 298.463Z" fill="white"/>
<path d="M671.236 295.216C671.236 295.216 674.815 297.101 677.815 298.463L676.638 303.736C676.638 303.736 670.712 300.188 668.723 297.416L671.236 295.216Z" fill="white"/>
<path opacity="0.2" d="M680.476 291.077C680.476 291.077 680.408 291.693 680.408 292.524C679.389 292.273 678.406 291.894 677.482 291.397C678.491 291.534 679.518 291.424 680.476 291.077Z" fill="black"/>
<path d="M672.776 282.656C673.446 279.986 673.207 277.168 672.098 274.648C672.098 274.648 679.127 276.662 679.145 270.262C679.145 270.262 669.77 271.759 669.289 275.092C668.809 278.424 671.975 281.751 672.776 282.656Z" fill="#263238"/>
<path d="M679.041 271.205C679.041 271.205 681.726 275.018 684.03 274.229V268.685H676.022L671.79 271.211L674.722 274.229L676.903 272.437L679.041 271.205Z" fill="#263238"/>
<path d="M687.418 460.754L681.406 460.446L681.258 455.888L681.147 452.561L686.014 452.075L686.975 452.118L687.184 456.233L687.418 460.754Z" fill="#CE7A63"/>
<path opacity="0.2" d="M687.184 456.233L681.258 455.888L681.147 452.561L686.014 452.075L686.975 452.118L687.184 456.233Z" fill="black"/>
<path d="M677.883 454.748L689.445 454.465L690.098 450.695H678.154L677.883 454.748Z" fill="#263238"/>
<path d="M688.712 461.007C688.712 461.007 690.726 455.068 692.297 455.66C693.868 456.251 688.712 461.007 688.712 461.007Z" stroke="#407BFF" stroke-miterlimit="10"/>
<path d="M689.057 461.007C689.057 461.007 692.1 458.111 693.326 459.239C694.551 460.366 689.057 461.007 689.057 461.007Z" stroke="#407BFF" stroke-miterlimit="10"/>
<path opacity="0.2" d="M649.559 448.126L647.846 450.744L642.752 447.923L644.193 445.028L649.559 448.126Z" fill="black"/>
<path d="M641.619 445.761L650.452 450.436L652.534 447.874L643.534 442.816L641.619 445.761Z" fill="#263238"/>
<path d="M647.243 455.851C647.243 455.851 649.744 452.721 650.76 453.461C651.776 454.2 647.243 455.851 647.243 455.851Z" stroke="#407BFF" stroke-miterlimit="10"/>
<path d="M647.698 455.851C647.698 455.851 652.01 454.834 652.195 456.233C652.38 457.631 647.698 455.851 647.698 455.851Z" stroke="#407BFF" stroke-miterlimit="10"/>
<path d="M646.719 452.512L642.081 449.906C641.757 449.727 641.375 449.682 641.019 449.783C640.662 449.883 640.36 450.12 640.177 450.442L638.089 454.138C637.907 454.463 637.862 454.846 637.962 455.204C638.063 455.562 638.301 455.865 638.625 456.048L651.789 463.44C652.113 463.621 652.496 463.667 652.854 463.567C653.212 463.466 653.516 463.228 653.698 462.904C653.86 462.614 653.915 462.277 653.852 461.951C653.789 461.625 653.612 461.332 653.353 461.124C651.653 459.762 648.167 456.633 647.397 453.393C647.35 453.207 647.266 453.033 647.15 452.882C647.033 452.73 646.886 452.604 646.719 452.512Z" fill="#263238"/>
<path d="M686.864 458.444H680.704C680.274 458.446 679.862 458.618 679.558 458.923C679.254 459.227 679.084 459.64 679.084 460.07V464.998C679.084 465.428 679.254 465.84 679.558 466.144C679.862 466.448 680.274 466.618 680.704 466.618H698.174C698.387 466.619 698.598 466.578 698.795 466.497C698.993 466.416 699.172 466.297 699.323 466.146C699.474 465.996 699.594 465.817 699.676 465.62C699.758 465.423 699.8 465.212 699.8 464.998C699.799 464.614 699.663 464.243 699.415 463.95C699.167 463.657 698.823 463.461 698.445 463.397C695.95 462.984 690.665 461.801 688.047 458.974C687.896 458.809 687.713 458.678 687.51 458.587C687.307 458.495 687.087 458.447 686.864 458.444Z" fill="#263238"/>
<path d="M670.601 344.78L668.673 348.907L665.255 348.414C662.033 348.932 660.69 347.102 660.69 347.102L658.663 345.254L662.427 340.942L663.006 341.841C669.185 342.722 670.601 344.78 670.601 344.78Z" fill="#CE7A63"/>
<path d="M726.14 303.668L724.945 305.257L728.444 308.313L729.472 306.908L726.14 303.668Z" fill="white"/>
<path d="M658.509 345.427L662.544 340.708L661.183 338.977L656.969 344.047L658.509 345.427Z" fill="white"/>
<path d="M735.971 274.334C735.555 275.572 735.419 276.887 735.575 278.184C735.731 279.481 736.173 280.726 736.871 281.831C739.261 285.453 738.719 273.478 738.719 273.478L735.971 274.334Z" fill="#263238"/>
<path d="M740.869 301.493C740.869 301.493 726.085 322.191 723.196 321.322C720.307 320.454 713.648 307.543 713.648 307.543L713.26 302.436L708.898 296.43L703.354 300.804L706.04 305.799C706.04 305.799 706.841 308.393 709.206 309.12C709.206 309.12 714.646 325.819 721.526 328.955C728.407 332.09 737.955 312.193 737.955 312.193L740.869 301.493Z" fill="#FFB573"/>
<path d="M772.519 452.321L764.886 455.222C755.03 433.576 747.022 370.448 747.022 370.448C747.022 370.448 746.788 372.216 746.437 375.062C745.291 384.487 742.864 405.671 743.357 413.254C744.14 426.012 741.885 457.539 741.885 457.539L732.645 458.635C732.645 458.635 732.959 427.472 731.641 410.205C730.323 392.939 734.357 348.636 734.357 348.636L759.841 347.466C764.215 352.492 765.305 414.357 766.402 420.043C767.498 425.728 772.519 452.321 772.519 452.321Z" fill="#263238"/>
<path d="M731.844 304.58C731.906 304.241 732.036 303.918 732.225 303.63C732.415 303.342 732.66 303.095 732.947 302.904C735.01 301.524 740.302 298.087 741.725 297.976C743.511 297.834 752.85 295.641 756.552 297.976C760.254 300.311 762.595 307.173 762.595 307.173C762.595 307.173 762.324 338.891 760.673 349.19L734.314 348.642C734.314 348.642 730.169 313.875 731.844 304.58Z" fill="#407BFF"/>
<path d="M761.363 316.099L765.478 323.651C765.478 323.651 766.026 340.677 764.658 345.069L762.595 349.19V355.8L767.523 356.484L768.896 351.266C768.896 351.266 769.716 347.422 768.896 345.778C768.896 345.778 774.662 332.595 772.592 321.199C772.592 321.199 762.188 298.259 755.806 297.625C749.425 296.99 761.363 316.099 761.363 316.099Z" fill="#FFB573"/>
<path d="M752.961 297.656C752.961 297.656 748.889 301.586 745.175 301.475C741.46 301.364 742.476 298.198 742.476 298.198C744.386 297.841 745.008 295.931 745.187 294.292C745.275 293.473 745.275 292.647 745.187 291.828C745.187 291.828 740.758 291.828 738.269 286.42C735.781 281.011 738.269 273.884 738.269 273.884C738.269 273.884 747.675 271.507 751.889 272.695C756.102 273.884 752.757 284.473 752.757 284.473C751.661 290.418 752.961 297.656 752.961 297.656Z" fill="#FFB573"/>
<path d="M744.706 279.521C744.706 279.946 744.472 280.291 744.189 280.291C743.905 280.291 743.677 279.946 743.677 279.521C743.677 279.096 743.905 278.751 744.189 278.751C744.472 278.751 744.706 279.096 744.706 279.521Z" fill="#263238"/>
<path d="M739.458 280.032C739.458 280.457 739.23 280.802 738.947 280.802C738.663 280.802 738.429 280.457 738.429 280.032C738.429 279.607 738.663 279.262 738.947 279.262C739.23 279.262 739.458 279.588 739.458 280.032Z" fill="#263238"/>
<path d="M741.195 280.402V284.535C740.855 284.64 740.492 284.643 740.151 284.542C739.81 284.441 739.507 284.241 739.279 283.968L741.195 280.402Z" fill="#ED893E"/>
<path d="M742.951 285.256C742.951 285.256 745.144 285.256 745.944 283.451" stroke="#263238" stroke-linecap="round" stroke-linejoin="round"/>
<path d="M743.677 276.552C743.677 276.552 745.587 276.398 746.141 277.586" stroke="#263238" stroke-linecap="round" stroke-linejoin="round"/>
<path d="M737.154 278.005C737.304 277.63 737.548 277.299 737.862 277.044C738.175 276.788 738.549 276.617 738.947 276.545" stroke="#263238" stroke-linecap="round" stroke-linejoin="round"/>
<path opacity="0.2" d="M748.544 291.169C747.675 292.449 746.53 293.516 745.193 294.292C745.281 293.473 745.281 292.647 745.193 291.828C746.342 291.831 747.481 291.607 748.544 291.169Z" fill="black"/>
<path d="M744.078 301.604L746.314 301.395L746.942 306.064L745.778 308.202H744.447L743.203 305.886L744.078 301.604Z" fill="#263238"/>
<path d="M752.69 295.777C750.461 298.016 747.932 299.933 745.174 301.475L746.505 304.777C746.505 304.777 752.086 303.816 754.476 297.194L752.69 295.777Z" fill="white"/>
<path d="M745.174 301.475L743.677 304.777C743.677 304.777 741.41 302.541 740.868 298.222L743.677 296.43C743.677 296.43 743.782 299.664 745.174 301.475Z" fill="white"/>
<path d="M744.546 306.97L743.024 326.712L745.581 329.817L747.94 326.522L745.636 306.97H744.546Z" fill="#263238"/>
<path d="M754.655 281.51C754.655 281.51 749.259 282.163 748.365 274.346C748.365 274.346 738.86 277.186 735.429 274.272C731.998 271.359 734.783 267.57 734.783 267.57C735.077 268.307 735.429 269.02 735.836 269.702V267.238C736.413 267.996 737.049 268.706 737.739 269.363C740.507 269.808 743.344 269.261 745.747 267.817C749.868 265.353 755.111 270.028 754.143 273.632C754.174 273.65 758.819 277.272 754.655 281.51Z" fill="#263238"/>
<path d="M750.952 281.732C750.952 281.732 752.406 276.576 754.796 278.393C757.186 280.211 753.78 285.286 752.117 284.997C750.454 284.707 750.952 281.732 750.952 281.732Z" fill="#FFB573"/>
<path d="M709.04 310.216L714.239 307.345C714.239 307.345 719.826 318.138 723.066 319.493C723.066 319.493 729.651 312.846 731.819 304.524L734.77 318.396C734.77 318.396 729.663 329.183 723.208 329.337C716.752 329.491 711.461 317.208 709.04 310.216Z" fill="#407BFF"/>
<path d="M757.667 311.805L765.502 324.384L764.197 343.868L770.092 345.02C770.092 345.02 774.632 331.468 772.617 321.212C771.157 313.764 766.543 304.321 761.19 299.806C759.288 298.246 756.933 297.341 754.476 297.225C754.476 297.225 753.028 300.563 753.102 303.385C753.176 306.206 757.667 311.805 757.667 311.805Z" fill="#407BFF"/>
<path opacity="0.2" d="M762.385 319.37L757.667 311.805C758.073 312.458 762.385 325.53 762.385 325.53V319.37Z" fill="black"/>
<path opacity="0.2" d="M747.022 370.448C747.022 370.448 746.788 372.216 746.437 375.062L745.205 360.081L747.022 370.448Z" fill="black"/>
<path d="M769.346 461.653L774.127 459.43L772.753 455.678L771.749 452.937L767.634 454.138L766.87 454.483L768.047 457.902L769.346 461.653Z" fill="#FFB573"/>
<path opacity="0.2" d="M768.047 457.902L772.753 455.678L771.749 452.937L767.634 454.138L766.87 454.483L768.047 457.902Z" fill="black"/>
<path d="M768.373 462.282C768.373 462.282 764.788 458.118 763.704 459.109C762.619 460.101 768.373 462.282 768.373 462.282Z" stroke="#407BFF" stroke-miterlimit="10"/>
<path d="M768.096 462.368C768.096 462.368 764.671 461.013 764.042 462.331C763.414 463.649 768.096 462.368 768.096 462.368Z" stroke="#407BFF" stroke-miterlimit="10"/>
<path d="M769.038 459.596L774.034 457.576C774.383 457.435 774.773 457.439 775.119 457.585C775.466 457.732 775.74 458.01 775.882 458.358L777.496 462.368C777.566 462.541 777.602 462.726 777.6 462.912C777.599 463.098 777.561 463.283 777.488 463.454C777.416 463.626 777.31 463.782 777.177 463.912C777.044 464.043 776.886 464.146 776.714 464.216L762.515 469.951C762.342 470.022 762.156 470.058 761.969 470.056C761.783 470.055 761.598 470.017 761.426 469.943C761.254 469.87 761.098 469.763 760.968 469.629C760.838 469.495 760.735 469.336 760.667 469.162C760.54 468.851 760.528 468.505 760.633 468.186C760.738 467.866 760.953 467.595 761.24 467.419C763.125 466.267 767.042 463.569 768.237 460.415C768.305 460.23 768.412 460.061 768.55 459.919C768.688 459.778 768.854 459.668 769.038 459.596Z" fill="#263238"/>
<path d="M734.419 466.366L739.686 466.236L739.92 462.245L740.092 459.331L735.842 458.795L735.004 458.807L734.721 462.411L734.419 466.366Z" fill="#FFB573"/>
<path opacity="0.2" d="M734.721 462.411L739.92 462.245L740.092 459.331L735.842 458.795L735.004 458.807L734.721 462.411Z" fill="black"/>
<path d="M733.273 466.557C733.273 466.557 731.647 461.308 730.261 461.789C728.875 462.269 733.273 466.557 733.273 466.557Z" stroke="#407BFF" stroke-miterlimit="10"/>
<path d="M732.971 466.551C732.971 466.551 730.372 463.939 729.275 464.9C728.179 465.861 732.971 466.551 732.971 466.551Z" stroke="#407BFF" stroke-miterlimit="10"/>
<path d="M734.955 464.358L740.345 464.499C740.532 464.504 740.716 464.546 740.887 464.622C741.058 464.698 741.212 464.807 741.34 464.942C741.469 465.078 741.57 465.237 741.637 465.412C741.704 465.586 741.736 465.772 741.731 465.959L741.614 470.271C741.609 470.458 741.567 470.642 741.491 470.812C741.415 470.983 741.306 471.136 741.171 471.265C741.035 471.393 740.875 471.493 740.701 471.559C740.526 471.626 740.341 471.657 740.154 471.651L724.846 471.251C724.66 471.246 724.476 471.204 724.305 471.128C724.135 471.052 723.981 470.943 723.853 470.808C723.725 470.672 723.625 470.512 723.558 470.338C723.492 470.163 723.461 469.977 723.466 469.791C723.477 469.454 723.606 469.131 723.832 468.881C724.057 468.631 724.364 468.468 724.698 468.423C726.891 468.115 731.555 467.191 733.908 464.783C734.044 464.644 734.207 464.535 734.387 464.462C734.568 464.389 734.761 464.354 734.955 464.358Z" fill="#263238"/>
<path d="M764.72 457.366L762.077 452.765L773.578 448.508L774.385 454.606L764.72 457.366Z" fill="#407BFF"/>
<path d="M731.364 454.569V460.52H743.431L743.893 454.569H731.364Z" fill="#407BFF"/>
<path d="M795.779 309.119C795.779 309.119 792.28 322.918 788.584 327.193C788.584 327.193 781.876 320.491 779.837 314.657C779.837 314.657 779.646 311.935 777.699 310.77L774.786 306.785L769.925 308.534L771.09 312.421L776.147 315.243C776.147 315.243 782.559 332.928 788.387 332.829C794.214 332.731 796.844 324.957 796.844 324.957L800.048 308.325L795.779 309.119Z" fill="#FF8B7B"/>
<path d="M776.264 316.9L779.861 314.657C779.861 314.657 785.984 324.661 788.849 326.669C788.849 326.669 792.415 320.164 793.635 314.811C794.275 311.899 795.062 309.02 795.994 306.187L800.072 312.095C800.072 312.095 797.393 330.907 791.849 332.817C786.305 334.727 783.169 329.312 781.906 327.181C780.644 325.049 776.264 316.9 776.264 316.9Z" fill="#263238"/>
<path d="M807.095 452.321C807.095 452.549 810.791 457.773 810.791 457.773L814.659 452.771L810.489 446.863L807.095 452.321Z" fill="#FF8B7B"/>
<path d="M809.047 455.777L813.051 451.434C813.333 451.131 813.723 450.952 814.136 450.936C814.549 450.92 814.952 451.068 815.257 451.348L818.731 454.563C818.881 454.702 819.003 454.869 819.089 455.054C819.175 455.24 819.223 455.441 819.231 455.645C819.239 455.849 819.207 456.053 819.136 456.245C819.065 456.437 818.956 456.613 818.817 456.762L807.433 469.082C807.152 469.383 806.763 469.561 806.352 469.578C805.94 469.594 805.538 469.447 805.234 469.169C804.963 468.918 804.789 468.58 804.744 468.213C804.698 467.846 804.785 467.475 804.988 467.167C806.319 465.14 808.93 460.643 808.641 456.953C808.623 456.74 808.651 456.525 808.721 456.322C808.79 456.12 808.902 455.934 809.047 455.777Z" fill="#263238"/>
<path d="M798.797 449.894L810.033 440.038L814.166 448.619L806.485 455.296L798.797 449.894Z" fill="#407BFF"/>
<path d="M794.688 338.213C794.688 338.213 782.572 391.109 782.368 403.799C782.165 416.488 793.235 438.498 800.232 448.804L809.657 441.307L796.001 408.043L802.339 366.623L809.657 450.547L818.7 451.705C818.7 451.705 819.852 419.969 818.7 408.431C817.548 396.893 823.955 357.654 819.211 342.648L794.688 338.213Z" fill="#263238"/>
<path d="M819.242 342.636C819.242 342.636 821.306 322.961 825.267 315.255L826.807 306.341C826.807 306.341 823.942 302.818 817.45 302.929C810.957 303.04 808.099 302.313 808.099 302.313C808.099 302.313 799.617 301.74 797.627 303.612C795.637 305.485 795.539 313.961 795.206 318.033C794.873 322.105 794.097 340.825 794.097 340.825L819.242 342.636Z" fill="#407BFF"/>
<path d="M818.669 302.276C818.669 302.276 808.912 313.703 810.76 342.636L822.168 344.595L820.616 332.595L827.928 310.659C827.928 310.659 829.462 303.828 818.669 302.276Z" fill="#263238"/>
<path d="M807.545 302.276C807.545 302.276 797.036 309.951 796.229 339.402L790.728 339.556L795.231 316C794.44 313.874 794.337 311.554 794.935 309.366C795.551 307.247 796.216 304.758 797.633 303.588C799.888 301.721 803.479 301.881 807.545 302.276Z" fill="#263238"/>
<path d="M820.419 309.187C820.419 309.187 826.961 325.068 825.347 331.493C825.347 331.493 814.062 328.591 808.857 323.546C808.857 323.546 807.224 320.793 804.545 320.589L799.395 317.947L795.218 322.333L798.483 325.795L805.259 326.096C805.259 326.096 821.275 341.281 827.349 338.115C830.189 336.63 831.408 333.747 831.901 331.098C832.361 328.499 832.217 325.829 831.482 323.294L827.139 307.752L820.419 309.187Z" fill="#FF8B7B"/>
<path d="M804.846 327.612L809.306 322.425C809.306 322.425 819.212 330.063 825.322 331.493C824.789 326.275 823.967 321.09 822.858 315.963L819.778 310.66L820.062 308.43L827.528 307.462C827.528 307.462 834.304 326.404 832.505 333.23C830.706 340.055 826.844 340.733 820.339 338.213C813.834 335.694 804.846 327.612 804.846 327.612Z" fill="#263238"/>
<path d="M818.823 465.423H812.62L812.263 460.261L812.084 457.68L811.98 456.189L818.817 456.762V460.261L818.823 465.423Z" fill="#FF8B7B"/>
<path d="M812.355 463.113H818.263C818.676 463.113 819.073 463.278 819.365 463.57C819.657 463.862 819.821 464.258 819.821 464.672V469.409C819.82 469.821 819.655 470.216 819.363 470.507C819.071 470.798 818.675 470.961 818.263 470.961H801.483C801.279 470.962 801.076 470.922 800.887 470.845C800.698 470.767 800.526 470.653 800.381 470.509C800.237 470.364 800.122 470.193 800.043 470.004C799.965 469.816 799.925 469.613 799.925 469.409C799.924 469.04 800.054 468.683 800.292 468.401C800.53 468.119 800.86 467.93 801.224 467.869C803.621 467.475 808.696 466.341 811.21 463.618C811.355 463.46 811.532 463.333 811.73 463.246C811.927 463.159 812.14 463.114 812.355 463.113Z" fill="#263238"/>
<path opacity="0.1" d="M818.669 302.276C817.545 303.762 816.594 305.372 815.836 307.074C813.627 311.948 812.148 317.121 811.444 322.425L818.669 316.573L817.098 311.54L825.889 305.159C825.889 305.159 823.591 302.824 818.669 302.276Z" fill="white"/>
<path opacity="0.1" d="M799.019 318.446C799.019 318.446 802.499 306.033 807.545 302.276C807.545 302.276 801.563 301.444 798.81 302.842L799.426 311.54L796.857 312.347L799.019 318.446Z" fill="white"/>
<path d="M826.012 281.726C827.195 284.689 825.926 288.021 826.043 291.206C826.092 292.66 826.437 294.089 826.474 295.518C826.511 296.947 826.179 298.524 825.113 299.516C824.152 300.422 822.778 300.693 821.485 300.933C819.464 301.296 817.271 301.641 815.46 300.68C815.041 300.459 814.659 300.175 814.228 299.99C813.333 299.685 812.378 299.602 811.444 299.75C810.512 299.9 809.56 299.854 808.647 299.615C805.764 298.611 807.748 294.643 808.241 292.611C809 289.498 809.756 286.387 810.507 283.278C813.618 282.662 816.704 281.8 819.821 281.172C820.839 280.881 821.911 280.835 822.951 281.036C823.924 281.332 825.039 282.04 826.012 281.726Z" fill="#263238"/>
<path d="M826.092 287.849C825.851 288.658 825.332 289.356 824.626 289.82C823.905 290.202 823.795 290.88 823.856 291.668C823.986 293.516 824.99 296.128 821.534 297.606C821.027 297.86 820.457 297.962 819.893 297.9C819.329 297.838 818.795 297.614 818.355 297.255C815.928 295.34 815.158 289.968 815.158 289.968L810.76 277.285C810.774 277.257 810.793 277.232 810.815 277.211L810.852 277.143C810.867 277.118 810.886 277.095 810.908 277.075C811.064 276.858 811.235 276.652 811.419 276.459C811.557 276.3 811.703 276.147 811.856 276.003C813.464 274.513 816.784 272.609 821.546 275.788C826.776 279.287 827.226 284.824 826.092 287.849Z" fill="#263238"/>
<path d="M826.345 288.921C826.4 290.393 825.045 291.237 823.881 291.699C823.312 291.913 822.724 292.072 822.125 292.173C821.041 293.978 818.694 295.253 818.694 295.253C818.519 295.922 818.414 296.608 818.38 297.298C818.317 298.97 818.422 300.644 818.694 302.294L817.105 304.758C810.483 307.789 808.123 302.294 808.123 302.294C810.551 302.035 811.327 299.997 811.555 298.284C811.648 297.498 811.648 296.704 811.555 295.919C810.479 295.466 809.526 294.763 808.777 293.868C808.027 292.974 807.501 291.913 807.243 290.775C806.46 287.461 807.101 284.344 808.475 281.282C809.027 280.061 809.689 278.892 810.452 277.79L810.76 277.291C810.774 277.263 810.793 277.238 810.815 277.217C810.842 277.169 810.873 277.124 810.908 277.081V277.038C811.019 276.897 811.179 276.693 811.388 276.471H811.425L819.735 275.393L823.345 278.276L824.608 285.422L822.76 287.621L821.99 288.539L821.799 288.761L822.039 288.557C823.505 287.325 825.378 286.709 826.061 287.874C826.238 288.195 826.335 288.554 826.345 288.921Z" fill="#FF8B7B"/>
<path d="M815.121 283.586C815.016 284.024 814.696 284.326 814.413 284.258C814.129 284.19 813.975 283.777 814.08 283.334C814.185 282.89 814.505 282.595 814.795 282.662C815.084 282.73 815.232 283.143 815.121 283.586Z" fill="#263238"/>
<path d="M810.39 282.311C810.286 282.755 809.965 283.057 809.676 282.989C809.386 282.921 809.238 282.502 809.343 282.065C809.448 281.627 809.768 281.319 810.058 281.387C810.347 281.455 810.495 281.88 810.39 282.311Z" fill="#263238"/>
<path d="M814.869 282.693L813.729 282.077C813.729 282.077 813.926 283.241 814.869 282.693Z" fill="#263238"/>
<path d="M810.144 281.455L809.004 280.839C809.004 280.839 809.22 282.009 810.144 281.455Z" fill="#263238"/>
<path d="M811.549 282.835L810.464 286.734C810.318 286.78 810.164 286.796 810.011 286.781C809.858 286.766 809.71 286.72 809.576 286.647C809.441 286.573 809.323 286.473 809.228 286.353C809.133 286.232 809.063 286.094 809.023 285.946L811.549 282.835Z" fill="#FF5652"/>
<path d="M811.782 289.444C811.782 289.444 814.474 289.845 815.244 287.596" stroke="#263238" stroke-linecap="round" stroke-linejoin="round"/>
<path d="M815.158 280.531C815.386 280.412 815.636 280.34 815.893 280.32C816.149 280.301 816.407 280.334 816.65 280.418C816.894 280.501 817.117 280.634 817.308 280.807C817.498 280.98 817.651 281.19 817.758 281.424" stroke="#263238" stroke-linecap="round" stroke-linejoin="round"/>
<path d="M811.407 278.917C811.204 278.781 810.974 278.69 810.733 278.65C810.492 278.61 810.245 278.622 810.009 278.685C809.773 278.748 809.553 278.861 809.364 279.015C809.175 279.17 809.021 279.363 808.912 279.582" stroke="#263238" stroke-linecap="round" stroke-linejoin="round"/>
<path d="M825.261 285.521L822.07 288.533H822.02C816.686 286.808 817.758 276.952 817.758 276.952C816.249 277.913 810.902 277.383 810.76 277.272C811.049 276.845 811.381 276.449 811.752 276.09C811.986 275.862 812.731 275.929 813.039 275.905L815.004 275.751L818.984 275.43C819.101 275.43 819.655 275.289 819.754 275.369L823.363 278.252L825.261 285.521Z" fill="#263238"/>
<path opacity="0.2" d="M814.271 296.337C813.575 297.247 812.619 297.924 811.53 298.278C811.623 297.492 811.623 296.698 811.53 295.912C812.417 296.193 813.341 296.337 814.271 296.337Z" fill="black"/>
<path opacity="0.3" d="M801.009 375.5L801.693 357.913L802.37 366.611L801.009 375.5Z" fill="black"/>
<path opacity="0.1" d="M818.817 457.36V460.261H812.263L812.084 457.68L818.817 457.36Z" fill="black"/>
<path d="M808.339 450.319L809.928 459.22H819.674L821.016 449.894L808.339 450.319Z" fill="#407BFF"/>
<path d="M482 174V187.5C482 189.367 483.341 190.875 485 190.875H488V170.625H485C483.341 170.625 482 172.133 482 174ZM525.5 157.125H515V150.375C515 148.508 513.659 147 512 147C510.341 147 509 148.508 509 150.375V157.125H498.5C494.356 157.125 491 160.901 491 165.562V194.25C491 197.973 493.691 201 497 201H527C530.309 201 533 197.973 533 194.25V165.562C533 160.901 529.644 157.125 525.5 157.125ZM506 190.875H500V187.5H506V190.875ZM503 178.219C500.928 178.219 499.25 176.331 499.25 174C499.25 171.669 500.928 169.781 503 169.781C505.072 169.781 506.75 171.669 506.75 174C506.75 176.331 505.072 178.219 503 178.219ZM515 190.875H509V187.5H515V190.875ZM524 190.875H518V187.5H524V190.875ZM521 178.219C518.928 178.219 517.25 176.331 517.25 174C517.25 171.669 518.928 169.781 521 169.781C523.072 169.781 524.75 171.669 524.75 174C524.75 176.331 523.072 178.219 521 178.219ZM539 170.625H536V190.875H539C540.659 190.875 542 189.367 542 187.5V174C542 172.133 540.659 170.625 539 170.625Z" fill="#F2C94C"/>
<defs>
<filter id="filter0_bd" x="-20" y="-20" width="1064" height="173" filterUnits="userSpaceOnUse" color-interpolation-filters="sRGB">
<feFlood flood-opacity="0" result="BackgroundImageFix"/>
<feGaussianBlur in="BackgroundImage" stdDeviation="10"/>
<feComposite in2="SourceAlpha" operator="in" result="effect1_backgroundBlur"/>
<feColorMatrix in="SourceAlpha" type="matrix" values="0 0 0 0 0 0 0 0 0 0 0 0 0 0 0 0 0 0 127 0"/>
<feOffset dy="0.5"/>
<feColorMatrix type="matrix" values="0 0 0 0 0 0 0 0 0 0 0 0 0 0 0 0 0 0 0.3 0"/>
<feBlend mode="normal" in2="effect1_backgroundBlur" result="effect2_dropShadow"/>
<feBlend mode="normal" in="SourceGraphic" in2="effect2_dropShadow" result="shape"/>
</filter>
<filter id="filter1_d" x="47" y="215" width="912" height="294" filterUnits="userSpaceOnUse" color-interpolation-filters="sRGB">
<feFlood flood-opacity="0" result="BackgroundImageFix"/>
<feColorMatrix in="SourceAlpha" type="matrix" values="0 0 0 0 0 0 0 0 0 0 0 0 0 0 0 0 0 0 127 0"/>
<feOffset dy="4"/>
<feGaussianBlur stdDeviation="2"/>
<feColorMatrix type="matrix" values="0 0 0 0 0 0 0 0 0 0 0 0 0 0 0 0 0 0 0.25 0"/>
<feBlend mode="normal" in2="BackgroundImageFix" result="effect1_dropShadow"/>
<feBlend mode="normal" in="SourceGraphic" in2="effect1_dropShadow" result="shape"/>
</filter>
<clipPath id="clip0">
<rect width="141" height="16" fill="white" transform="translate(448.101 71.3276)"/>
</clipPath>
</defs>
</svg>
