<svg id="Layer_1" data-name="Layer 1" xmlns="http://www.w3.org/2000/svg" viewBox="0 0 575 284"><defs><style>.cls-1{fill:#fefefe;}.cls-2{fill:#06cbf9;}.cls-3{fill:#1bcdf4;}.cls-4{fill:#0dc2f2;}.cls-5{fill:#3bc2ef;}.cls-6{fill:#3ec5f0;}.cls-7{fill:#10caf5;}.cls-8{fill:#17caf4;}.cls-9{fill:#17d0f8;}.cls-10{fill:#0fc1f4;}.cls-11{fill:#019fdb;}.cls-12{fill:#05c0f6;}.cls-13{fill:#09bcf1;}.cls-14{fill:#1ea4d9;}.cls-15{fill:#f4fbfd;}.cls-16{fill:#00e3fe;}</style></defs><path class="cls-1" d="M220.24,283.9q-141.71,0-283.41.1c-3.42,0-4.1-.67-4.09-4.09q.18-137.91,0-275.82c0-3.42.67-4.09,4.09-4.09Q220.24.17,503.65,0c3.42,0,4.09.67,4.09,4.09q-.18,137.91,0,275.82c0,3.42-.67,4.09-4.09,4.09Q361.95,283.82,220.24,283.9ZM219.17,71.26l.63.76c-.54,3.62.65,7.37-.84,10.91-4.59.48-8.19-2.32-7.6-6.2.28-1.86.32-3.33-1.39-4.3-2.12-1.21-3.37.4-4.68,1.66l-51.92,0c-1.53-1.77-3.24-3.15-5.39-1a2.79,2.79,0,0,0,.17,4.37c2.16,1.86,3.93,1,5.32-1.17l7-.25a181.14,181.14,0,0,0,23.76,0h5.16a20.42,20.42,0,0,0,7.79,0h6.2l2.87,1.1a23.28,23.28,0,0,1,4.32,4.54c2.42,3.27,6.31,4.77,9.77,6.45,2.66,1.3,4.2-2.56,6.76-3.28,2.07-.58,3.52-2.41,4.78-4.2a9.74,9.74,0,0,1,8.78-4.37c13.74.17,27.48,0,41.23.07,2.72,0,5.57-.74,8,1.61a2.47,2.47,0,0,0,3.58-.52c.95-1.13,2.06-2.49-.24-3.49v0c-.57-.74-.8-2.11-2.25-1.21a2.06,2.06,0,0,0-.86.3c-.72-.12-1.08.31-1.35.88a.58.58,0,0,0-.66.19l-51.9-.05c-1.23-1.44-2.54-2.8-4.63-1.61-1.73,1-1.61,2.5-1.35,4.31.54,3.91-3,6.62-7.64,6.14-1.12-3.64-.29-7.37-.53-11.06.46-.18.9-.4,1.37-.56,5.77-1.94,9.17-6.65,8.53-11.83a11.76,11.76,0,0,0-10.62-10.15A11.3,11.3,0,0,0,210.05,58c-1.34,5.6,1.21,10.19,7.2,12.92l1,.13A1.46,1.46,0,0,0,219.17,71.26Zm3,60.76c-2.49-1.81-3.53-.06-4.51,1.85l-1.91,1c-5.67,2.38-8.72,6.87-8.52,12.56.2,5.93,3.81,10.48,10,12.57,1.44,2,3,3.89,5.61,1.78,1.38-1.14,1.85-2.77.36-4.36-2-2.15-3.74-1.57-5.31.56-3.65-1.25-6.35-3.45-7.64-7.24-2-5.8.06-10.16,7-14.72,4.11,4.5,6.33-.5,9.28-1.85,5.55-2.29,7.91-6.77,7.7-12.44-.25-6.46-3.89-10.61-10-12.53-1.43-2-3-3.68-5.51-1.53-1.11,1-2,2.26-.72,3.8,1.61,1.95,3.32,2.55,5.23.37a9.8,9.8,0,0,1,2.81.55c8.38,4.51,8,13.74-.8,20.59ZM165.29,85.26c-1-.43-2-1.22-3.06-1.21-1.45,0-3.27-.82-4.28,1.25a2.73,2.73,0,0,0,1,3.44c1.52,1.34,3.2,1.42,4.49-.54,11.75-1.3,23.54-.27,35.31-.52a3.75,3.75,0,0,1,2.23.91c1.71,1.46,3.31,1.53,4.73-.23a2.87,2.87,0,0,0-.43-4.39c-2.15-1.91-3.58-.56-5,1.08Zm110.89,0-35-.3c-1.35-1.73-2.81-2.9-4.88-.93-1.23,1.18-1.65,2.55-.62,4,1.42,2,3.12,2.19,5,.54a3.7,3.7,0,0,1,2.21-.93c11.7.22,23.43-.58,35.12.49,1.51,2.15,3.27,2,4.91.31a2.74,2.74,0,0,0,0-4c-1.51-1.72-3-1.75-4.69-.2A8.44,8.44,0,0,1,276.18,85.29ZM222,174.89l4.79-3.73c5.61-2.37,7.64-7,7.48-12.66s-3.93-9.93-9.62-11.65c-1.44-1.74-2.68-4.2-5.51-2.35-1.2.78-2.37,2-1.15,3.73,1.52,2.1,3.24,2.8,5.26.6,5,.68,7.58,4,8.57,8.45,1.29,5.84-1.88,9.76-6.52,12.76-2.33.05-4.59-3.38-7-.11-1.73,2.33.05,3.56,1.41,4.95-.09,2.4.79,5-1.1,7.07-1.34,1.48-1.44,2.83,0,4.25a2.9,2.9,0,0,0,3.61.58,3,3,0,0,0,1-4.3C221.53,180,222.16,177.44,222,174.89ZM200.33,96.18c-4.3,0-8.61.23-12.88-.07-4.8-.35-9.88,1.58-14.39-1.81-1.26-1-2.51.36-3.28,1.43a3.07,3.07,0,0,0,.24,4.09c.91,1,2.26,1.94,3.46.84,2.1-1.92,4.55-1.64,7-1.65l19.83,0c1.56,1.72,3.2,3.06,5.24.63,1.28-1.52,1-3-.32-4.36C203.11,93.09,201.76,94.82,200.33,96.18Zm65.86,2.72c1.6,1.6,3.29,3.24,5.34.77a3.07,3.07,0,0,0-.33-4.48c-2.17-2.12-3.53-.3-5,1a72.94,72.94,0,0,1-8-.12c-6.45-.75-13.22,2-19.43-1.9-1.3-.81-2.48.63-3.24,1.7a2.8,2.8,0,0,0,.26,3.67c1,1.18,2.38,2.24,3.84.93,2.14-1.93,4.63-1.47,7.07-1.5C253.23,99,259.71,98.94,266.19,98.9Zm-54.82,11c0-5.8,3.25-8.94,9.16-8.93A3.7,3.7,0,0,0,224,98.53c.79-1.68-.33-2.8-1.56-3.75a2.47,2.47,0,0,0-3.89.65c-1.4,2.44-4,3.45-5.73,5.41a13.24,13.24,0,0,0,.15,18.42c1.8,1.91,4.36,2.89,5.8,5.32.83,1.4,2.72,1.23,4,.26a3.06,3.06,0,0,0,1.39-3c-.4-1.92-1.89-1.83-3.46-1.91C215.06,119.64,211.34,115.55,211.37,109.92Z" transform="translate(67.26 0)"/><path class="cls-2" d="M160.47,76l-7,.25c0-.42-.05-.84-.08-1.27,15.74,0,31.48,0,47.21,0,1.59,0,3.36.55,4.69-.92,1.31-1.26,2.56-2.87,4.68-1.66,1.71,1,1.67,2.44,1.39,4.3-.59,3.88,3,6.68,7.6,6.2a5,5,0,0,1,3.61,0c4.65.48,8.18-2.23,7.64-6.14-.26-1.81-.38-3.32,1.35-4.31,2.09-1.19,3.4.17,4.63,1.61,1.49,1.59,3.43.92,5.17.93,15.57,0,31.14,0,46.7,0,2.07,1.34,4.32,3.52,5.14-1.08,2.3,1,1.19,2.36.24,3.49a2.47,2.47,0,0,1-3.58.52c-2.4-2.35-5.25-1.6-8-1.61-13.75,0-27.49.1-41.23-.07a9.74,9.74,0,0,0-8.78,4.37c-1.26,1.79-2.71,3.62-4.78,4.2-2.56.72-4.1,4.58-6.76,3.28-3.46-1.68-7.35-3.18-9.77-6.45a23.28,23.28,0,0,0-4.32-4.54c-.62-1.24-1.81-1-2.87-1.1H160.47Z" transform="translate(67.26 0)"/><path class="cls-3" d="M217.25,70.87c-6-2.73-8.54-7.32-7.2-12.92a11.3,11.3,0,0,1,11.27-8.64,11.76,11.76,0,0,1,10.62,10.15c.64,5.18-2.76,9.89-8.53,11.83-.47.16-.91.38-1.37.56l0,0c.07-.87.15-1.74.22-2.62A15.81,15.81,0,0,0,225.44,68a9,9,0,0,0,3.25-11.4,9.13,9.13,0,0,0-11.54-4,9,9,0,0,0-4.68,10.92c.79,2.57,2.9,4,4.8,5.53C217.26,69.6,217.26,70.24,217.25,70.87Z" transform="translate(67.26 0)"/><path class="cls-4" d="M211.37,109.92c0,5.63,3.69,9.72,9.28,10,1.57.08,3.06,0,3.46,1.91a3.06,3.06,0,0,1-1.39,3c-1.28,1-3.17,1.14-4-.26-1.44-2.43-4-3.41-5.8-5.32a13.24,13.24,0,0,1-.15-18.42c1.76-2,4.33-3,5.73-5.41a2.47,2.47,0,0,1,3.89-.65c1.23,1,2.35,2.07,1.56,3.75a3.7,3.7,0,0,1-3.42,2.46C214.62,101,211.4,104.12,211.37,109.92Z" transform="translate(67.26 0)"/><path class="cls-5" d="M266.19,98.9c-6.48,0-13,.06-19.44.12-2.44,0-4.93-.43-7.07,1.5-1.46,1.31-2.79.25-3.84-.93a2.8,2.8,0,0,1-.26-3.67c.76-1.07,1.94-2.51,3.24-1.7,6.21,3.9,13,1.15,19.43,1.9a72.94,72.94,0,0,0,8,.12,4.25,4.25,0,0,1-.06.87H242.35V98h23.79C266.17,98.3,266.19,98.6,266.19,98.9Z" transform="translate(67.26 0)"/><path class="cls-6" d="M200.31,99l-19.83,0c-2.45,0-4.9-.27-7,1.65-1.2,1.1-2.55.18-3.46-.84a3.07,3.07,0,0,1-.24-4.09c.77-1.07,2-2.39,3.28-1.43,4.51,3.39,9.59,1.46,14.39,1.81,4.27.3,8.58.07,12.88.07a5.5,5.5,0,0,1,0,.91H176.48V98h23.79C200.3,98.34,200.31,98.65,200.31,99Z" transform="translate(67.26 0)"/><path class="cls-7" d="M217.26,160c-6.18-2.09-9.79-6.64-10-12.57-.2-5.69,2.85-10.18,8.52-12.56l1.46,1.15c-6.91,4.56-8.94,8.92-7,14.72,1.29,3.79,4,6,7.64,7.24Z" transform="translate(67.26 0)"/><path class="cls-8" d="M225.2,132.94c8.81-6.85,9.18-16.08.8-20.59a9.8,9.8,0,0,0-2.81-.55l1-2.64c6.15,1.92,9.79,6.07,10,12.53.21,5.67-2.15,10.15-7.7,12.44C226.08,133.74,225.64,133.34,225.2,132.94Z" transform="translate(67.26 0)"/><path class="cls-9" d="M224.6,146.85c5.69,1.72,9.46,6,9.62,11.65s-1.87,10.29-7.48,12.66c-.49-.38-1-.75-1.49-1.12,4.64-3,7.81-6.92,6.52-12.76-1-4.46-3.61-7.77-8.57-8.45A2.06,2.06,0,0,1,224.6,146.85Z" transform="translate(67.26 0)"/><path class="cls-10" d="M200.28,85.05c1.38-1.64,2.81-3,5-1.08a2.87,2.87,0,0,1,.43,4.39c-1.42,1.76-3,1.69-4.73.23a3.75,3.75,0,0,0-2.23-.91c-11.77.25-23.56-.78-35.31.52l1-1.26c10.57,0,21.15.06,31.73,0,1.43,0,3,.45,4.13-1Z" transform="translate(67.26 0)"/><path class="cls-10" d="M278.09,88.13c-11.69-1.07-23.42-.27-35.12-.49a3.7,3.7,0,0,0-2.21.93c-1.93,1.65-3.63,1.42-5-.54-1-1.42-.61-2.79.62-4,2.07-2,3.53-.8,4.88.93,0,.34,0,.67,0,1,.95,1.3,2.35,1,3.64,1q16.14,0,32.27-.08Z" transform="translate(67.26 0)"/><path class="cls-8" d="M222,174.89c.21,2.55-.42,5.12,1.22,7.59a3,3,0,0,1-1,4.3,2.9,2.9,0,0,1-3.61-.58c-1.45-1.42-1.35-2.77,0-4.25,1.89-2.08,1-4.67,1.1-7.07A1.68,1.68,0,0,1,222,174.89Z" transform="translate(67.26 0)"/><path class="cls-11" d="M205.29,74.09c-1.33,1.47-3.1.92-4.69.92-15.73,0-31.47,0-47.21,0,0-.31,0-.62,0-.93Z" transform="translate(67.26 0)"/><path class="cls-11" d="M288.06,75c-15.56,0-31.13,0-46.7,0-1.74,0-3.68.66-5.17-.93l51.9.05A6.56,6.56,0,0,1,288.06,75Z" transform="translate(67.26 0)"/><path class="cls-10" d="M222,174.89a1.68,1.68,0,0,0-2.31,0c-1.36-1.39-3.14-2.62-1.41-4.95,2.43-3.27,4.69.16,7,.11.5.37,1,.74,1.49,1.12Z" transform="translate(67.26 0)"/><path class="cls-10" d="M224.19,109.16l-1,2.64c-1.91,2.18-3.62,1.58-5.23-.37-1.26-1.54-.39-2.83.72-3.8C221.16,105.48,222.76,107.17,224.19,109.16Z" transform="translate(67.26 0)"/><path class="cls-12" d="M153.37,74.07c0,.31,0,.62,0,.93s.05.85.08,1.27c-1.39,2.12-3.16,3-5.32,1.17a2.79,2.79,0,0,1-.17-4.37C150.13,70.92,151.84,72.3,153.37,74.07Z" transform="translate(67.26 0)"/><path class="cls-13" d="M278.09,88.13l-1-1.21-1-.92.06-.71a8.44,8.44,0,0,0,2.17-1.07c1.69-1.55,3.18-1.52,4.69.2a2.74,2.74,0,0,1,0,4C281.36,90.16,279.6,90.28,278.09,88.13Z" transform="translate(67.26 0)"/><path class="cls-10" d="M217.26,160l.66-2c1.57-2.13,3.3-2.71,5.31-.56,1.49,1.59,1,3.22-.36,4.36C220.29,163.85,218.7,162,217.26,160Z" transform="translate(67.26 0)"/><path class="cls-12" d="M266.19,98.9c0-.3,0-.6,0-.9s0-.59,0-.89a4.25,4.25,0,0,0,.06-.87c1.45-1.35,2.81-3.17,5-1a3.07,3.07,0,0,1,.33,4.48C269.48,102.14,267.79,100.5,266.19,98.9Z" transform="translate(67.26 0)"/><path class="cls-4" d="M164.42,86.94l-1,1.26c-1.29,2-3,1.88-4.49.54a2.73,2.73,0,0,1-1-3.44c1-2.07,2.83-1.23,4.28-1.25,1,0,2,.78,3.06,1.21,0,.25.05.5.07.76Z" transform="translate(67.26 0)"/><path class="cls-14" d="M276.18,85.29l-.06.71H241.19c0-.33,0-.66,0-1Z" transform="translate(67.26 0)"/><path class="cls-14" d="M165.36,86c0-.26,0-.51-.07-.76l35-.21v1Z" transform="translate(67.26 0)"/><path class="cls-13" d="M225.2,132.94c.44.4.88.8,1.33,1.19-2.95,1.35-5.17,6.35-9.28,1.85l-1.46-1.15,1.92-1c1.54-.51,3.29-.52,4.5-1.85Z" transform="translate(67.26 0)"/><path class="cls-3" d="M222.57,82.91a5,5,0,0,0-3.61,0c1.49-3.54.3-7.29.84-10.91L222,71.8l0,0C222.28,75.54,221.45,79.27,222.57,82.91Z" transform="translate(67.26 0)"/><path class="cls-12" d="M200.3,97.09a5.5,5.5,0,0,0,0-.91c1.43-1.36,2.78-3.09,4.9-.94,1.37,1.39,1.6,2.84.32,4.36-2,2.43-3.68,1.09-5.24-.63,0-.32,0-.63,0-.94S200.29,97.41,200.3,97.09Z" transform="translate(67.26 0)"/><path class="cls-12" d="M224.6,146.85a2.06,2.06,0,0,0-1.4,2c-2,2.2-3.74,1.5-5.26-.6-1.22-1.7-.05-2.95,1.15-3.73C221.92,142.65,223.16,145.11,224.6,146.85Z" transform="translate(67.26 0)"/><path class="cls-12" d="M160.47,76h23.76A181.14,181.14,0,0,1,160.47,76Z" transform="translate(67.26 0)"/><path class="cls-12" d="M288.06,75a6.56,6.56,0,0,0,0-.89.58.58,0,0,1,.66-.19l1.35-.88a2.06,2.06,0,0,1,.86-.3A2.05,2.05,0,0,0,293.21,74v0C292.38,78.53,290.13,76.35,288.06,75Z" transform="translate(67.26 0)"/><path class="cls-10" d="M222,71.8,219.8,72l-.63-.76c-.14-.72-.4-1-.93-.26l-1-.13c0-.63,0-1.27,0-1.9l2,.08,2.15-.06a3.37,3.37,0,0,1,.82.19C222.14,70.06,222.06,70.93,222,71.8Z" transform="translate(67.26 0)"/><path class="cls-12" d="M189.39,76h7.79A20.42,20.42,0,0,1,189.39,76Z" transform="translate(67.26 0)"/><path class="cls-7" d="M222.21,132c-1.21,1.33-3,1.34-4.5,1.85C218.68,132,219.72,130.21,222.21,132Z" transform="translate(67.26 0)"/><path class="cls-12" d="M203.38,76c1.06.1,2.25-.14,2.87,1.1Z" transform="translate(67.26 0)"/><path class="cls-2" d="M293.21,74A2.05,2.05,0,0,1,291,72.75C292.41,71.85,292.64,73.22,293.21,74Z" transform="translate(67.26 0)"/><path class="cls-2" d="M290.1,73.05l-1.35.88C289,73.36,289.38,72.93,290.1,73.05Z" transform="translate(67.26 0)"/><path class="cls-3" d="M218.24,71c.53-.71.79-.46.93.26A1.46,1.46,0,0,1,218.24,71Z" transform="translate(67.26 0)"/><path class="cls-15" d="M222.21,69.18a3.37,3.37,0,0,0-.82-.19c-.47-2.1.49-4,1-5.9,1.59-1.05,2.37-2.32,1.18-4.15a3.27,3.27,0,0,0-2.82-1.77,3.32,3.32,0,0,0-3,2.34c-.87,2.26,1,3.24,2.23,4.5l-.73,5-2-.08c-1.9-1.58-4-3-4.8-5.53a9,9,0,0,1,4.68-10.92,9.13,9.13,0,0,1,11.54,4A9,9,0,0,1,225.44,68,15.81,15.81,0,0,1,222.21,69.18Z" transform="translate(67.26 0)"/><path class="cls-16" d="M266.16,97.11c0,.3,0,.6,0,.89H242.36v-.89Z" transform="translate(67.26 0)"/><path class="cls-16" d="M200.3,97.09c0,.32,0,.63,0,.94H176.49v-.94Z" transform="translate(67.26 0)"/><path class="cls-16" d="M165.36,86l34.92,0c-1.1,1.44-2.7,1-4.13,1-10.58,0-21.16,0-31.73,0Z" transform="translate(67.26 0)"/><path class="cls-16" d="M241.19,86h34.93l1,.92Q261,87,244.83,87C243.54,87,242.14,87.29,241.19,86Z" transform="translate(67.26 0)"/><path class="cls-3" d="M222.34,63.09c-.46,1.94-1.42,3.8-1,5.9l-2.15.06c.24-1.68.49-3.36.73-5Z" transform="translate(67.26 0)"/><path class="cls-10" d="M222.34,63.09,220,64c-1.23-1.26-3.1-2.24-2.23-4.5a3.32,3.32,0,0,1,3-2.34,3.27,3.27,0,0,1,2.82,1.77C224.71,60.77,223.93,62,222.34,63.09Z" transform="translate(67.26 0)"/></svg>