<svg width="109" height="109" viewBox="0 0 109 109" fill="none" xmlns="http://www.w3.org/2000/svg">
<circle cx="54.5" cy="54.5" r="54.5" fill="#22294A"/>
<path d="M38.5439 78.6228C34.9447 78.6228 32 81.5676 32 85.1667H77.807C77.807 81.5676 74.8623 78.6228 71.2632 78.6228H58.1754V72.079H67.9912C71.5904 72.079 74.5351 69.1343 74.5351 65.5351H48.3597C42.9282 65.5351 38.5439 61.1507 38.5439 55.7193C38.5439 52.1529 40.4743 49.0446 43.3209 47.3432C42.372 46.0017 41.8158 44.3985 41.8158 42.6316C41.8158 41.9445 41.9467 41.2574 42.1103 40.603C36.1881 43.057 32 48.9137 32 55.7193C32 64.7499 39.3291 72.079 48.3597 72.079V78.6228H38.5439Z" fill="white"/>
<path d="M50.1919 34.4845C54.609 34.5826 58.1754 38.1818 58.1754 42.6316C58.1754 45.0855 57.0957 47.245 55.3943 48.7501L57.3247 54.0506L60.4003 52.9382L61.5128 56.0138L67.664 53.7889L66.5515 50.7132L69.6272 49.6008L60.6621 24.9632L57.5865 26.0756L56.474 23L50.3228 25.2249L51.4352 28.3005L48.3596 29.4457L50.1919 34.4845Z" fill="white"/>
<path d="M49.9955 47.5394C52.7061 47.5394 54.9034 45.3421 54.9034 42.6315C54.9034 39.921 52.7061 37.7236 49.9955 37.7236C47.285 37.7236 45.0876 39.921 45.0876 42.6315C45.0876 45.3421 47.285 47.5394 49.9955 47.5394Z" fill="white"/>
</svg>
